<?xml version="1.0" encoding="UTF-8"?>
<svg version="1.1" xmlns="http://www.w3.org/2000/svg" width="512" height="512">
<path d="M0 0 C168.96 0 337.92 0 512 0 C512 168.96 512 337.92 512 512 C343.04 512 174.08 512 0 512 C0 343.04 0 174.08 0 0 Z " fill="#C9CCCD" transform="translate(0,0)"/>
<path d="M0 0 C0.85324218 -0.00679667 1.70648437 -0.01359334 2.58558238 -0.02059597 C5.42580296 -0.03948628 8.2655893 -0.03713646 11.10586548 -0.03465271 C13.14991303 -0.04363525 15.1939555 -0.05384463 17.23799133 -0.06518555 C22.77729592 -0.09163695 28.3164614 -0.0987169 33.85582304 -0.10063291 C37.31938968 -0.10276803 40.78292115 -0.10917779 44.24647903 -0.11712456 C56.3374887 -0.14486035 68.42839927 -0.15713209 80.5194397 -0.1547699 C91.77808566 -0.15296734 103.03630049 -0.18463286 114.29483736 -0.23200089 C123.97237781 -0.2712618 133.64977752 -0.28732018 143.32739699 -0.28540367 C149.10244584 -0.28463982 154.87711124 -0.29313241 160.65208054 -0.32493782 C166.08435274 -0.35404074 171.51587641 -0.35417884 176.94817543 -0.33238792 C178.93711379 -0.32925789 180.92609926 -0.33629484 182.91495705 -0.3544693 C194.68929261 -0.4550625 203.14996045 -0.24760152 212.11267662 8.24008846 C218.44059692 14.96986902 217.07685923 25.87508816 217.06069946 34.50270081 C216.96034544 36.41233613 216.96034544 36.41233613 218.17080688 37.40113831 C218.83080688 36.08113831 219.49080688 34.76113831 220.17080688 33.40113831 C229.31765761 46.73218671 235.13291267 61.32807849 239.10830688 76.96363831 C239.40740967 78.13938416 239.40740967 78.13938416 239.71255493 79.33888245 C247.68985193 113.04962482 242.5158795 151.38576675 226.11270142 181.65992737 C225.24764805 183.25908771 224.40905712 184.87248871 223.57315063 186.48707581 C220.24448269 192.82485958 216.44679611 198.66327242 212.17080688 204.40113831 C211.29682251 205.58449768 211.29682251 205.58449768 210.40518188 206.79176331 C198.06089586 222.87045518 182.9820194 234.856587 165.17080688 244.40113831 C164.08283813 244.99797424 162.99486938 245.59481018 161.87393188 246.20973206 C128.23218225 263.93877617 87.61870839 268.2644045 51.12979126 257.0927887 C40.97735217 253.79800381 31.5045838 249.55179754 22.17080688 244.40113831 C21.1047522 243.82492737 20.03869751 243.24871643 18.94033813 242.65504456 C-14.42431393 223.9656599 -38.74184942 190.24411626 -49.64169312 153.83863831 C-50.42152045 151.03765194 -51.13715366 148.22495433 -51.82919312 145.40113831 C-52.14888062 144.13914612 -52.46856812 142.87715393 -52.79794312 141.57691956 C-60.19962622 109.01033495 -54.05844693 69.16402485 -36.82919312 40.40113831 C-35.26878466 38.18880718 -33.72279471 36.3488428 -31.82919312 34.40113831 C-31.49919312 34.40113831 -31.16919312 34.40113831 -30.82919312 34.40113831 C-30.49919312 36.05113831 -30.16919312 37.70113831 -29.82919312 39.40113831 C-29.49919312 39.40113831 -29.16919312 39.40113831 -28.82919312 39.40113831 C-28.81984741 38.77658752 -28.81050171 38.15203674 -28.8008728 37.50856018 C-28.74670374 34.63866201 -28.66315117 31.77031345 -28.57919312 28.90113831 C-28.55792358 27.42773987 -28.55792358 27.42773987 -28.53622437 25.92457581 C-28.29057586 18.5551207 -26.92432825 13.15214732 -22.18856812 7.41285706 C-21.65747437 6.97586487 -21.12638062 6.53887268 -20.57919312 6.08863831 C-20.05841187 5.63875549 -19.53763062 5.18887268 -19.00106812 4.72535706 C-12.79492671 0.94139674 -7.10578779 -0.04215652 0 0 Z " fill="#E1E4E6" transform="translate(162.82919311523438,116.59886169433594)"/>
<path d="M0 0 C0.85324218 -0.00679667 1.70648437 -0.01359334 2.58558238 -0.02059597 C5.42580296 -0.03948628 8.2655893 -0.03713646 11.10586548 -0.03465271 C13.14991303 -0.04363525 15.1939555 -0.05384463 17.23799133 -0.06518555 C22.77729592 -0.09163695 28.3164614 -0.0987169 33.85582304 -0.10063291 C37.31938968 -0.10276803 40.78292115 -0.10917779 44.24647903 -0.11712456 C56.3374887 -0.14486035 68.42839927 -0.15713209 80.5194397 -0.1547699 C91.77808566 -0.15296734 103.03630049 -0.18463286 114.29483736 -0.23200089 C123.97237781 -0.2712618 133.64977752 -0.28732018 143.32739699 -0.28540367 C149.10244584 -0.28463982 154.87711124 -0.29313241 160.65208054 -0.32493782 C166.08435274 -0.35404074 171.51587641 -0.35417884 176.94817543 -0.33238792 C178.93711379 -0.32925789 180.92609926 -0.33629484 182.91495705 -0.3544693 C194.68929261 -0.4550625 203.14996045 -0.24760152 212.11267662 8.24008846 C218.44059692 14.96986902 217.07685923 25.87508816 217.06069946 34.50270081 C216.96034544 36.41233613 216.96034544 36.41233613 218.17080688 37.40113831 C218.83080688 36.08113831 219.49080688 34.76113831 220.17080688 33.40113831 C229.31765761 46.73218671 235.13291267 61.32807849 239.10830688 76.96363831 C239.40740967 78.13938416 239.40740967 78.13938416 239.71255493 79.33888245 C247.68985193 113.04962482 242.5158795 151.38576675 226.11270142 181.65992737 C225.24764805 183.25908771 224.40905712 184.87248871 223.57315063 186.48707581 C220.24448269 192.82485958 216.44679611 198.66327242 212.17080688 204.40113831 C211.29682251 205.58449768 211.29682251 205.58449768 210.40518188 206.79176331 C198.06089586 222.87045518 182.9820194 234.856587 165.17080688 244.40113831 C164.08283813 244.99797424 162.99486938 245.59481018 161.87393188 246.20973206 C128.23218225 263.93877617 87.61870839 268.2644045 51.12979126 257.0927887 C40.97735217 253.79800381 31.5045838 249.55179754 22.17080688 244.40113831 C21.1047522 243.82492737 20.03869751 243.24871643 18.94033813 242.65504456 C-14.42431393 223.9656599 -38.74184942 190.24411626 -49.64169312 153.83863831 C-50.42152045 151.03765194 -51.13715366 148.22495433 -51.82919312 145.40113831 C-52.14888062 144.13914612 -52.46856812 142.87715393 -52.79794312 141.57691956 C-60.19962622 109.01033495 -54.05844693 69.16402485 -36.82919312 40.40113831 C-35.26878466 38.18880718 -33.72279471 36.3488428 -31.82919312 34.40113831 C-31.49919312 34.40113831 -31.16919312 34.40113831 -30.82919312 34.40113831 C-30.49919312 36.05113831 -30.16919312 37.70113831 -29.82919312 39.40113831 C-29.49919312 39.40113831 -29.16919312 39.40113831 -28.82919312 39.40113831 C-28.81984741 38.77658752 -28.81050171 38.15203674 -28.8008728 37.50856018 C-28.74670374 34.63866201 -28.66315117 31.77031345 -28.57919312 28.90113831 C-28.55792358 27.42773987 -28.55792358 27.42773987 -28.53622437 25.92457581 C-28.29057586 18.5551207 -26.92432825 13.15214732 -22.18856812 7.41285706 C-21.65747437 6.97586487 -21.12638062 6.53887268 -20.57919312 6.08863831 C-20.05841187 5.63875549 -19.53763062 5.18887268 -19.00106812 4.72535706 C-12.79492671 0.94139674 -7.10578779 -0.04215652 0 0 Z M-18.18856812 14.90895081 C-20.47599442 19.77790109 -20.26599931 23.97371646 -20.07919312 29.27613831 C-20.06114624 30.25066956 -20.04309937 31.22520081 -20.02450562 32.22926331 C-19.97761046 34.62091638 -19.91200218 37.01050428 -19.82919312 39.40113831 C-18.08818832 39.4165995 -18.08818832 39.4165995 -16.31201172 39.43237305 C-5.39320127 39.52997513 5.52555051 39.6326965 16.44426537 39.74047756 C22.05817039 39.79572783 27.6720806 39.8491512 33.28604126 39.89845276 C38.70011672 39.94606527 44.11412739 39.99840693 49.52812576 40.05407906 C51.59744282 40.07451674 53.66677766 40.09322744 55.73612595 40.11021233 C58.62636515 40.13422506 61.51648118 40.16428387 64.40664673 40.19581604 C65.26907486 40.2015715 66.13150299 40.20732697 67.02006531 40.21325684 C72.94270256 40.28708614 72.94270256 40.28708614 75.17080688 41.40113831 C74.51080688 42.39113831 73.85080688 43.38113831 73.17080688 44.40113831 C73.17080688 45.72113831 73.17080688 47.04113831 73.17080688 48.40113831 C42.48080688 48.40113831 11.79080688 48.40113831 -19.82919312 48.40113831 C-19.82919312 96.91113831 -19.82919312 145.42113831 -19.82919312 195.40113831 C6.24080688 195.40113831 32.31080688 195.40113831 59.17080688 195.40113831 C59.17080688 198.04113831 59.17080688 200.68113831 59.17080688 203.40113831 C35.74080688 203.40113831 12.31080688 203.40113831 -11.82919312 203.40113831 C6.29098437 230.58140453 37.76464325 245.5836034 68.97940063 251.97633362 C76.33350368 253.33293913 83.45214411 253.71595687 90.92080688 253.65113831 C92.62696167 253.64098694 92.62696167 253.64098694 94.36758423 253.63063049 C134.14691757 253.14448261 168.43540156 237.68555511 196.29605103 209.56886292 C199.49155944 206.86404785 199.49155944 206.86404785 201.17080688 203.40113831 C177.08080688 203.40113831 152.99080688 203.40113831 128.17080688 203.40113831 C128.17080688 200.76113831 128.17080688 198.12113831 128.17080688 195.40113831 C129.15830429 195.40335892 130.1458017 195.40557953 131.16322327 195.40786743 C140.44879717 195.42809913 149.73436663 195.44311058 159.01995754 195.45295048 C163.79428968 195.45817924 168.56860409 195.46527675 173.34292603 195.47657776 C177.9464695 195.4874069 182.54999588 195.4934152 187.1535511 195.49601555 C188.91390312 195.49786975 190.67425415 195.50149027 192.43459892 195.50686836 C194.89152966 195.51407916 197.34838884 195.51512923 199.80532837 195.5146637 C200.54044144 195.51825897 201.2755545 195.52185425 202.03294373 195.52555847 C205.38663795 195.81514499 205.38663795 195.81514499 208.17080688 194.40113831 C208.26735416 192.51552313 208.2926793 190.62624375 208.2910614 188.73815918 C208.29243607 187.50831802 208.29381073 186.27847687 208.29522705 185.0113678 C208.29168744 183.63600135 208.28805263 182.26063514 208.28433228 180.88526917 C208.28405041 179.44671633 208.28420813 178.00816335 208.28477478 176.5696106 C208.28506278 172.65242688 208.27916572 168.73527351 208.27220082 164.81809688 C208.26596763 160.72879994 208.26536351 156.63950237 208.26417542 152.55020142 C208.261062 144.80121433 208.25284847 137.05224128 208.24282593 129.30326039 C208.22957996 118.83581438 208.22416496 108.36836456 208.21832371 97.90091228 C208.20890859 81.4009771 208.18898974 64.90107155 208.17080688 48.40113831 C176.49080688 48.40113831 144.81080688 48.40113831 112.17080688 48.40113831 C111.18080688 45.43113831 110.19080688 42.46113831 109.17080688 39.40113831 C141.84080688 39.40113831 174.51080688 39.40113831 208.17080688 39.40113831 C209.67150901 21.97855802 209.67150901 21.97855802 201.95176601 11.05746365 C198.21283744 8.8305765 194.90244817 8.84883453 190.67546082 8.89993286 C189.82195964 8.89439846 188.96845847 8.88886407 188.08909363 8.88316196 C185.23004857 8.86955219 182.37187598 8.88452646 179.5128479 8.89942932 C177.46275461 8.89564624 175.41266387 8.89014629 173.36257935 8.88305664 C167.79435985 8.86908256 162.22644869 8.88028605 156.65824628 8.89676785 C150.83275431 8.91060893 145.00728042 8.90415928 139.18177795 8.90063477 C129.39739 8.89793169 119.61312465 8.91141597 109.82876587 8.93458557 C98.51625794 8.96118843 87.20395511 8.96294509 75.89142662 8.95119721 C65.01139677 8.94041763 54.13144112 8.94660841 43.25141716 8.96075249 C38.6203632 8.96651146 33.98936355 8.96643026 29.35830879 8.96168709 C23.90407936 8.95691458 18.45007448 8.96703055 12.99588776 8.98864174 C10.99400273 8.99420629 8.99209612 8.99467796 6.99020958 8.98968887 C4.25760275 8.98373281 1.52568167 8.99624752 -1.2068634 9.01345825 C-1.99918395 9.00744821 -2.7915045 9.00143816 -3.60783476 8.99524599 C-9.67322368 9.06471546 -13.89995918 10.35052873 -18.18856812 14.90895081 Z " fill="#1C2C36" transform="translate(162.82919311523438,116.59886169433594)"/>
<path d="M0 0 C3.05678866 1.02338877 3.9725613 1.95524499 5.68359375 4.74609375 C6.61738548 6.64616975 7.49591212 8.56634461 8.37007141 10.49455261 C10.41707318 14.93875071 12.64394775 19.09757613 15.26074219 23.23388672 C27.61615381 43.88341356 26.57718079 64.23019385 25.89263916 87.6473999 C25.75743041 92.7765794 25.69981667 97.90664556 25.63476562 103.03710938 C25.49711403 113.02699826 25.27654552 123.013055 25 133 C25.95146912 133.30297501 26.90293823 133.60595001 27.88323975 133.91810608 C32.29053621 135.44797263 32.29053621 135.44797263 34 138 C34.26464844 140.32836914 34.26464844 140.32836914 34.109375 143.03515625 C34.05910156 144.00904297 34.00882812 144.98292969 33.95703125 145.98632812 C33.88871094 147.00146484 33.82039063 148.01660156 33.75 149.0625 C33.69714844 150.08150391 33.64429688 151.10050781 33.58984375 152.15039062 C33.16081362 159.67837276 33.16081362 159.67837276 32 162 C31.8409349 165.27850852 31.74594976 168.55442549 31.671875 171.8359375 C31 175 31 175 28.578125 177.4140625 C26 179 26 179 24 179 C24.06960938 179.845625 24.13921875 180.69125 24.2109375 181.5625 C24.54550954 188.57258087 24.43588615 193.08800721 19.64453125 198.41796875 C14.02408321 203.82481307 9.53194043 206.04678074 1.6875 206.375 C-4.54594664 206.23930592 -9.87303075 204.79057158 -14.59765625 200.57421875 C-20.16365632 194.29421284 -20.31912542 188.13088066 -20.65625 180.08203125 C-20.68678036 176.89697355 -20.68678036 176.89697355 -23 175 C-23.24291992 173.13647461 -23.24291992 173.13647461 -23.23046875 170.90234375 C-23.22853516 170.10119141 -23.22660156 169.30003906 -23.22460938 168.47460938 C-23.20624023 167.21874023 -23.20624023 167.21874023 -23.1875 165.9375 C-23.18685547 165.09638672 -23.18621094 164.25527344 -23.18554688 163.38867188 C-23.14023184 157.14023184 -23.14023184 157.14023184 -22 156 C-21.92058788 154.62238575 -21.91080561 153.24067866 -21.92926025 151.86090088 C-21.93825851 150.96746475 -21.94725677 150.07402863 -21.95652771 149.15351868 C-21.97119583 148.16474228 -21.98586395 147.17596588 -22.00097656 146.15722656 C-22.02376448 144.00710619 -22.04597329 141.85697962 -22.06768799 139.70684814 C-22.08047035 138.55748024 -22.09325272 137.40811234 -22.10642242 136.2239151 C-22.1771212 128.81703929 -22.18329321 121.40977187 -22.20027542 114.00261307 C-22.21876535 107.51998546 -22.25977952 101.0391437 -22.35302734 94.55712891 C-23.09894863 40.26869152 -23.09894863 40.26869152 -9.58833313 18.59150696 C-7.14528179 14.60545112 -5.19517039 10.40364453 -3.1875 6.1875 C-2.14069599 4.11636328 -1.07269558 2.05789032 0 0 Z " fill="#13242E" transform="translate(254,148)"/>
<path d="M0 0 C9.22269206 -0.04627979 18.44534434 -0.08184694 27.66812706 -0.10362434 C31.95034248 -0.11407483 36.23247864 -0.12825697 40.51464844 -0.15087891 C44.64488126 -0.17256238 48.77503769 -0.18455909 52.90532303 -0.18975449 C54.48343738 -0.19345835 56.06154741 -0.2006908 57.63962936 -0.21146011 C59.84496951 -0.22591549 62.04999142 -0.22798048 64.25537109 -0.22705078 C65.51223724 -0.231492 66.76910339 -0.23593323 68.0640564 -0.24050903 C71 0 71 0 73 2 C73.25396729 3.96665955 73.25396729 3.96665955 73.25878906 6.40209961 C73.26509338 7.31322006 73.27139771 8.22434052 73.27789307 9.16307068 C73.2738446 10.14953079 73.26979614 11.13599091 73.265625 12.15234375 C73.26753845 13.1634169 73.2694519 14.17449005 73.27142334 15.21620178 C73.27278603 17.35727181 73.26908375 19.49835008 73.26074219 21.6394043 C73.25005505 24.92059888 73.26062906 28.20124454 73.2734375 31.48242188 C73.2721157 33.55989705 73.26955289 35.63737187 73.265625 37.71484375 C73.26967346 38.69927963 73.27372192 39.68371552 73.27789307 40.69798279 C73.26843658 42.06939171 73.26843658 42.06939171 73.25878906 43.46850586 C73.25719788 44.27299667 73.25560669 45.07748749 73.25396729 45.90635681 C73 48 73 48 71 51 C68.2918396 51.36076355 68.2918396 51.36076355 64.80615234 51.34057617 C63.50495453 51.34034958 62.20375671 51.34012299 60.86312866 51.33988953 C59.43739481 51.32456837 58.01166444 51.30892037 56.5859375 51.29296875 C55.13148434 51.28737443 53.67702553 51.28310356 52.2225647 51.28010559 C48.39193145 51.26864374 44.56163872 51.23916547 40.73114014 51.20599365 C36.82341112 51.17532138 32.91562716 51.16160637 29.0078125 51.14648438 C21.33838632 51.11429667 13.66924085 51.06308463 6 51 C6.01571045 49.95134766 6.0314209 48.90269531 6.04760742 47.82226562 C6.10224455 43.90112097 6.13647191 39.98000943 6.16479492 36.05859375 C6.17980505 34.36712978 6.20021963 32.67570422 6.22631836 30.984375 C6.26304686 28.54156976 6.27980411 26.0992827 6.29296875 23.65625 C6.30845261 22.91008423 6.32393646 22.16391846 6.33988953 21.3951416 C6.34213391 14.26218262 4.42266643 8.68628541 0 3 C0 2.01 0 1.02 0 0 Z " fill="#CCD0D1" transform="translate(282,178)"/>
<path d="M0 0 C4.48953494 2.87712755 8.04456436 3.28274169 13.21508789 2.93725586 C19.37201061 2.72458393 23.69241592 3.23449275 29.27758789 5.87475586 C31.5958276 6.61176848 33.92894023 7.23866378 36.27758789 7.87475586 C32.15158974 9.0252541 28.17772638 9.00443213 23.92268372 8.98155212 C23.07215367 8.98099542 22.22162362 8.98043871 21.34531993 8.97986513 C18.49043837 8.97682502 15.63562639 8.96663884 12.78076172 8.95654297 C10.735688 8.95298727 8.69061342 8.94990116 6.64553833 8.94725037 C2.23828423 8.94069489 -2.16894966 8.93113229 -6.57619286 8.91935539 C-13.54780513 8.90107522 -20.51941246 8.89146652 -27.49104309 8.88343811 C-47.31696733 8.85927832 -67.14286166 8.82344912 -86.96875 8.77880859 C-97.91596588 8.75423629 -108.86316993 8.73688825 -119.81040937 8.72724921 C-126.73744271 8.72071418 -133.66437874 8.70517085 -140.59137857 8.68293178 C-144.9074936 8.67117816 -149.22358515 8.66783298 -153.53971481 8.66683388 C-155.53712837 8.66469136 -157.53454174 8.65911682 -159.53193474 8.64980316 C-162.2655682 8.63755309 -164.99893678 8.63778064 -167.73258972 8.64097595 C-168.51685386 8.63446815 -169.30111801 8.62796035 -170.10914773 8.62125534 C-175.53099279 8.6457975 -180.4791237 9.51283725 -185.72241211 10.87475586 C-181.97715412 7.12949787 -177.73970302 7.18565636 -172.72241211 6.87475586 C-172.72241211 6.21475586 -172.72241211 5.55475586 -172.72241211 4.87475586 C-170.74241211 3.88475586 -168.76241211 2.89475586 -166.72241211 1.87475586 C-166.72241211 2.53475586 -166.72241211 3.19475586 -166.72241211 3.87475586 C-157.01683569 4.25387994 -151.01920229 2.47052409 -142.90478516 -2.47143555 C-131.7942985 -9.2222798 -119.29935196 -13.9103104 -106.72241211 -17.12524414 C-105.01118164 -17.57383789 -105.01118164 -17.57383789 -103.26538086 -18.03149414 C-69.12686221 -25.50253774 -29.40903773 -19.21279304 0 0 Z " fill="#E7E9EA" transform="translate(330.722412109375,109.125244140625)"/>
<path d="M0 0 C0.96647964 -0.00065712 0.96647964 -0.00065712 1.95248413 -0.00132751 C4.0737785 0.00075593 6.19427407 0.02406436 8.31542969 0.04760742 C9.78944466 0.053205 11.26346523 0.05747433 12.73748779 0.06047058 C16.61083475 0.07190676 20.48384244 0.10136303 24.35705566 0.13458252 C28.31188366 0.16531007 32.26676664 0.17898163 36.22167969 0.1940918 C43.97704243 0.22623421 51.73212596 0.27741532 59.48730469 0.34057617 C58.74251444 3.60133026 57.60191531 6.00277376 55.92480469 8.90307617 C51.89992125 16.81365399 53.36624711 24.5986907 54.25146484 33.13916016 C54.52342697 36.83091933 54.54177832 40.50114148 54.51855469 44.19995117 C54.51629883 44.88943848 54.51404297 45.57892578 54.51171875 46.28930664 C54.50588247 47.9730727 54.49691695 49.65682743 54.48730469 51.34057617 C46.30769915 51.41000694 38.12821618 51.46335183 29.94838905 51.49601269 C26.15038286 51.51168623 22.35257787 51.53295477 18.5546875 51.56689453 C14.89128002 51.59942858 11.22806637 51.61741646 7.5645256 51.6252079 C6.16502199 51.6307622 4.7655293 51.64160816 3.36610794 51.65776634 C1.41002957 51.67945891 -0.54624279 51.68080087 -2.50244141 51.68115234 C-4.17456192 51.6911451 -4.17456192 51.6911451 -5.88046265 51.70133972 C-6.74909943 51.58228775 -7.61773621 51.46323578 -8.51269531 51.34057617 C-10.59532805 48.21662707 -10.76861277 47.47466301 -10.80322266 43.91674805 C-10.81598236 43.02572388 -10.82874207 42.13469971 -10.84188843 41.2166748 C-10.84411407 40.25724976 -10.84633972 39.29782471 -10.84863281 38.30932617 C-10.85528961 37.32186401 -10.86194641 36.33440186 -10.86880493 35.3170166 C-10.87893101 33.22902287 -10.88362197 31.14099678 -10.88330078 29.05297852 C-10.88767868 25.85273237 -10.92401217 22.65385991 -10.96191406 19.45385742 C-10.96778118 17.4265184 -10.97175127 15.39917281 -10.97363281 13.37182617 C-10.98800385 12.41240112 -11.00237488 11.45297607 -11.0171814 10.46447754 C-11.01102814 9.57345337 -11.00487488 8.6824292 -10.99853516 7.7644043 C-11.00138519 6.98069458 -11.00423523 6.19698486 -11.00717163 5.38952637 C-10.51269531 3.34057617 -10.51269531 3.34057617 -8.88937378 1.58537292 C-5.77157513 -0.04758908 -3.51630203 -0.0201315 0 0 Z " fill="#C9CDCF" transform="translate(169.5126953125,177.659423828125)"/>
<path d="M0 0 C3 2.41796875 3 2.41796875 4 5.41796875 C-4.85296065 6.31754378 -10.16089746 5.32729151 -17.5859375 0.48828125 C-29.24183594 -6.57994092 -42.88362577 -11.05224247 -56 -14.58203125 C-57.13050781 -14.90171875 -58.26101563 -15.22140625 -59.42578125 -15.55078125 C-93.13519327 -23.50841294 -128.94661935 -15.45552954 -159 0.41796875 C-160.47417608 1.39446299 -161.93669856 2.38936529 -163.375 3.41796875 C-167.77062977 6.38501884 -172.89014889 6.23520083 -178 5.41796875 C-178.66 4.75796875 -179.32 4.09796875 -180 3.41796875 C-164.19432705 -9.16205666 -146.44593531 -17.33852706 -127.125 -22.95703125 C-126.30628418 -23.19574951 -125.48756836 -23.43446777 -124.64404297 -23.68041992 C-82.32020508 -35.34795848 -35.44470039 -25.05682999 0 0 Z " fill="#303F47" transform="translate(345,107.58203125)"/>
<path d="M0 0 C0.66 0 1.32 0 2 0 C2 43.89 2 87.78 2 133 C1.34 133 0.68 133 0 133 C-9.22268567 111.26587328 -15.39471205 91.52862268 -15.26074219 67.75927734 C-15.25000954 65.50200561 -15.2607151 63.2455293 -15.2734375 60.98828125 C-15.28624966 49.01650046 -14.42064657 37.32980154 -10.6875 25.875 C-10.4723877 25.21322754 -10.25727539 24.55145508 -10.03564453 23.86962891 C-7.31130042 15.66098422 -4.03870216 7.65227778 0 0 Z " fill="#D7DBDF" transform="translate(133,164)"/>
<path d="M0 0 C0.66 0 1.32 0 2 0 C19.2560994 40.84093595 22.9840289 82.69830879 6.07885742 124.52172852 C4.75614271 127.69834283 3.39369969 130.85386726 2 134 C1.34 134 0.68 134 0 134 C0 89.78 0 45.56 0 0 Z " fill="#DADDDF" transform="translate(379,162)"/>
<path d="M0 0 C9.22269206 -0.04627979 18.44534434 -0.08184694 27.66812706 -0.10362434 C31.95034248 -0.11407483 36.23247864 -0.12825697 40.51464844 -0.15087891 C44.64488126 -0.17256238 48.77503769 -0.18455909 52.90532303 -0.18975449 C54.48343738 -0.19345835 56.06154741 -0.2006908 57.63962936 -0.21146011 C59.84496951 -0.22591549 62.04999142 -0.22798048 64.25537109 -0.22705078 C65.51223724 -0.231492 66.76910339 -0.23593323 68.0640564 -0.24050903 C71 0 71 0 73 2 C73.25396729 3.96665955 73.25396729 3.96665955 73.25878906 6.40209961 C73.26509338 7.31322006 73.27139771 8.22434052 73.27789307 9.16307068 C73.2738446 10.14953079 73.26979614 11.13599091 73.265625 12.15234375 C73.26753845 13.1634169 73.2694519 14.17449005 73.27142334 15.21620178 C73.27278603 17.35727181 73.26908375 19.49835008 73.26074219 21.6394043 C73.25005505 24.92059888 73.26062906 28.20124454 73.2734375 31.48242188 C73.2721157 33.55989705 73.26955289 35.63737187 73.265625 37.71484375 C73.26967346 38.69927963 73.27372192 39.68371552 73.27789307 40.69798279 C73.26843658 42.06939171 73.26843658 42.06939171 73.25878906 43.46850586 C73.25719788 44.27299667 73.25560669 45.07748749 73.25396729 45.90635681 C73 48 73 48 71 51 C68.2918396 51.36076355 68.2918396 51.36076355 64.80615234 51.34057617 C63.50495453 51.34034958 62.20375671 51.34012299 60.86312866 51.33988953 C59.43739481 51.32456837 58.01166444 51.30892037 56.5859375 51.29296875 C55.13148434 51.28737443 53.67702553 51.28310356 52.2225647 51.28010559 C48.39193145 51.26864374 44.56163872 51.23916547 40.73114014 51.20599365 C36.82341112 51.17532138 32.91562716 51.16160637 29.0078125 51.14648438 C21.33838632 51.11429667 13.66924085 51.06308463 6 51 C6.33 49.35 6.66 47.7 7 46 C27.13 46 47.26 46 68 46 C68 32.8 68 19.6 68 6 C63.25882812 6.03480469 58.51765625 6.06960937 53.6328125 6.10546875 C50.63410231 6.12079241 47.63544021 6.13523384 44.63671875 6.14648438 C39.87408457 6.16443718 35.11162295 6.18570391 30.34912109 6.22631836 C26.51065044 6.25884887 22.67236476 6.27683957 18.83376694 6.28463173 C17.36727866 6.29018666 15.90080082 6.30103379 14.43439102 6.31719017 C12.38458409 6.33888161 10.33554725 6.34197055 8.28564453 6.34057617 C7.11760284 6.34723801 5.94956116 6.35389984 4.74612427 6.36076355 C3.83990326 6.24171158 2.93368225 6.12265961 2 6 C0 3 0 3 0 0 Z " fill="#909598" transform="translate(282,178)"/>
<path d="M0 0 C2.46452332 1.39788818 2.46452332 1.39788818 5 4 C5.7508144 7.20143374 5.63156396 10.35913989 5.56762695 13.63378906 C5.56872215 15.09770081 5.56872215 15.09770081 5.56983948 16.59118652 C5.56635642 19.81656499 5.52745995 23.04049886 5.48828125 26.265625 C5.47895572 28.50192475 5.47183838 30.73823472 5.46684265 32.97454834 C5.44775264 38.86027228 5.39863367 44.74537921 5.34332275 50.63085938 C5.29217401 56.63663384 5.2693379 62.64250801 5.24414062 68.6484375 C5.19051761 80.43256275 5.10517986 92.21623007 5 104 C2.03 104 -0.94 104 -4 104 C-4.0926089 91.03076351 -4.16371889 78.06160545 -4.20724869 65.09210587 C-4.22813898 59.07007432 -4.25648342 53.0482687 -4.30175781 47.02636719 C-4.3451634 41.21679203 -4.36912624 35.40743442 -4.37950897 29.59770966 C-4.3869098 27.37927576 -4.40136157 25.160854 -4.42292023 22.94251251 C-4.45188334 19.83934129 -4.4559589 16.73707332 -4.45410156 13.63378906 C-4.46848267 12.71309631 -4.48286377 11.79240356 -4.49768066 10.84381104 C-4.45705348 4.58633169 -4.45705348 4.58633169 -1.97161865 1.39788818 C-1.3209845 0.93658508 -0.67035034 0.47528198 0 0 Z " fill="#E2E7EA" transform="translate(255,198)"/>
<path d="M0 0 C0.96647964 -0.00065712 0.96647964 -0.00065712 1.95248413 -0.00132751 C4.0737785 0.00075593 6.19427407 0.02406436 8.31542969 0.04760742 C9.78944466 0.053205 11.26346523 0.05747433 12.73748779 0.06047058 C16.61083475 0.07190676 20.48384244 0.10136303 24.35705566 0.13458252 C28.31188366 0.16531007 32.26676664 0.17898163 36.22167969 0.1940918 C43.97704243 0.22623421 51.73212596 0.27741532 59.48730469 0.34057617 C58.98126477 2.50931869 58.48746655 4.34025244 57.48730469 6.34057617 C36.69730469 6.34057617 15.90730469 6.34057617 -5.51269531 6.34057617 C-5.51269531 19.87057617 -5.51269531 33.40057617 -5.51269531 47.34057617 C-1.92394531 47.17557617 1.66480469 47.01057617 5.36230469 46.84057617 C21.73475332 46.1531915 38.10424601 46.24458746 54.48730469 46.34057617 C54.48730469 47.99057617 54.48730469 49.64057617 54.48730469 51.34057617 C46.30769915 51.41000694 38.12821618 51.46335183 29.94838905 51.49601269 C26.15038286 51.51168623 22.35257787 51.53295477 18.5546875 51.56689453 C14.89128002 51.59942858 11.22806637 51.61741646 7.5645256 51.6252079 C6.16502199 51.6307622 4.7655293 51.64160816 3.36610794 51.65776634 C1.41002957 51.67945891 -0.54624279 51.68080087 -2.50244141 51.68115234 C-4.17456192 51.6911451 -4.17456192 51.6911451 -5.88046265 51.70133972 C-6.74909943 51.58228775 -7.61773621 51.46323578 -8.51269531 51.34057617 C-10.59532805 48.21662707 -10.76861277 47.47466301 -10.80322266 43.91674805 C-10.81598236 43.02572388 -10.82874207 42.13469971 -10.84188843 41.2166748 C-10.84411407 40.25724976 -10.84633972 39.29782471 -10.84863281 38.30932617 C-10.85528961 37.32186401 -10.86194641 36.33440186 -10.86880493 35.3170166 C-10.87893101 33.22902287 -10.88362197 31.14099678 -10.88330078 29.05297852 C-10.88767868 25.85273237 -10.92401217 22.65385991 -10.96191406 19.45385742 C-10.96778118 17.4265184 -10.97175127 15.39917281 -10.97363281 13.37182617 C-10.98800385 12.41240112 -11.00237488 11.45297607 -11.0171814 10.46447754 C-11.01102814 9.57345337 -11.00487488 8.6824292 -10.99853516 7.7644043 C-11.00138519 6.98069458 -11.00423523 6.19698486 -11.00717163 5.38952637 C-10.51269531 3.34057617 -10.51269531 3.34057617 -8.88937378 1.58537292 C-5.77157513 -0.04758908 -3.51630203 -0.0201315 0 0 Z " fill="#83888C" transform="translate(169.5126953125,177.659423828125)"/>
<path d="M0 0 C0.99 0.33 1.98 0.66 3 1 C4.89212737 1.22179785 6.78884472 1.40614015 8.6875 1.5625 C9.68136719 1.64628906 10.67523438 1.73007812 11.69921875 1.81640625 C12.45847656 1.87699219 13.21773438 1.93757813 14 2 C14.33 1.34 14.66 0.68 15 0 C15.99 0.33 16.98 0.66 18 1 C20.28878326 1.20244766 22.58129605 1.36422048 24.875 1.5 C29.01187126 1.74592865 32.95633937 2.07749187 37 3 C37 3.33 37 3.66 37 4 C22.15 4.33 7.3 4.66 -8 5 C12.295 5.495 12.295 5.495 33 6 C33.495 6.99 33.495 6.99 34 8 C38.76016226 8.07677681 43.33492459 8.00920679 48.0625 7.4375 C52.58660971 6.92774116 56.51658971 7.25276495 61 8 C61 8.33 61 8.66 61 9 C31.44723936 11.88345504 1.62517881 11.35611944 -28.0272522 10.68060303 C-29.66584171 10.64375716 -31.30449761 10.60974591 -32.94320679 10.57867432 C-35.22292016 10.53367516 -37.50193752 10.47585008 -39.78125 10.4140625 C-41.08126953 10.3826416 -42.38128906 10.3512207 -43.72070312 10.31884766 C-46.73254084 10.02600519 -48.47128415 9.5904124 -51 8 C-43.55751128 5.98169797 -36.68673197 5.80149042 -29 6 C-24.65386506 6 -20.32828626 5.39348057 -16 5 C-33.82 4.67 -51.64 4.34 -70 4 C-70 3.67 -70 3.34 -70 3 C-46.65955483 2.28112652 -23.35200469 1.84125912 0 2 C0 1.34 0 0.68 0 0 Z " fill="#A9ADB0" transform="translate(258,396)"/>
<path d="M0 0 C0 34.32 0 68.64 0 104 C-1.65 104 -3.3 104 -5 104 C-5.06942445 90.88308162 -5.12277285 77.76620675 -5.15543652 64.64914227 C-5.1711112 58.55875357 -5.19238249 52.46849032 -5.22631836 46.37817383 C-5.25884731 40.50377477 -5.27683942 34.62949657 -5.28463173 28.75501442 C-5.29018686 26.51064971 -5.30103426 24.26629182 -5.31719017 22.02197838 C-5.3388783 18.88519218 -5.34197051 15.74890931 -5.34057617 12.61206055 C-5.351362 11.67842178 -5.36214783 10.74478302 -5.3732605 9.78285217 C-5.36913651 8.92889862 -5.36501251 8.07494507 -5.36076355 7.19511414 C-5.36352893 6.45307078 -5.36629431 5.71102743 -5.36914349 4.94649792 C-4.77841979 1.83160496 -3.23608849 0 0 0 Z " fill="#CBD2DD" transform="translate(272,198)"/>
<path d="M0 0 C5 4 5 4 5.61523914 6.05392838 C5.61063018 6.78767559 5.60602121 7.52142281 5.60127258 8.27740479 C5.6081459 9.12431885 5.61501923 9.97123291 5.62210083 10.84381104 C5.60412445 11.76450378 5.58614807 12.68519653 5.56762695 13.63378906 C5.56835709 14.60973022 5.56908722 15.58567139 5.56983948 16.59118652 C5.56635642 19.81656499 5.52745995 23.04049886 5.48828125 26.265625 C5.47895572 28.50192475 5.47183838 30.73823472 5.46684265 32.97454834 C5.44775264 38.86027228 5.39863367 44.74537921 5.34332275 50.63085938 C5.29217401 56.63663384 5.2693379 62.64250801 5.24414062 68.6484375 C5.19051761 80.43256275 5.10517986 92.21623007 5 104 C3.35 104 1.7 104 0 104 C0 69.68 0 35.36 0 0 Z " fill="#E1E5EA" transform="translate(240,198)"/>
<path d="M0 0 C1.79133978 -0.05391993 3.58313899 -0.09275571 5.375 -0.125 C6.37273437 -0.14820313 7.37046875 -0.17140625 8.3984375 -0.1953125 C11 0 11 0 13 2 C13.25396729 3.96665955 13.25396729 3.96665955 13.25878906 6.40209961 C13.26509338 7.31322006 13.27139771 8.22434052 13.27789307 9.16307068 C13.2738446 10.14953079 13.26979614 11.13599091 13.265625 12.15234375 C13.26753845 13.1634169 13.2694519 14.17449005 13.27142334 15.21620178 C13.27278603 17.35727181 13.26908375 19.49835008 13.26074219 21.6394043 C13.25005505 24.92059888 13.26062906 28.20124454 13.2734375 31.48242188 C13.2721157 33.55989705 13.26955289 35.63737187 13.265625 37.71484375 C13.26967346 38.69927963 13.27372192 39.68371552 13.27789307 40.69798279 C13.26843658 42.06939171 13.26843658 42.06939171 13.25878906 43.46850586 C13.25719788 44.27299667 13.25560669 45.07748749 13.25396729 45.90635681 C13 48 13 48 11 51 C8.2918396 51.36076355 8.2918396 51.36076355 4.80615234 51.34057617 C3.50495453 51.34034958 2.20375671 51.34012299 0.86312866 51.33988953 C-0.56260519 51.32456837 -1.98833556 51.30892037 -3.4140625 51.29296875 C-4.86851566 51.28737443 -6.32297447 51.28310356 -7.7774353 51.28010559 C-11.60806855 51.26864374 -15.43836128 51.23916547 -19.26885986 51.20599365 C-23.17658888 51.17532138 -27.08437284 51.16160637 -30.9921875 51.14648438 C-38.66161368 51.11429667 -46.33075915 51.06308463 -54 51 C-54 49.68 -54 48.36 -54 47 C-33.21 47 -12.42 47 9 47 C8.96043692 33.31284646 8.96043692 33.31284646 8.90991211 19.62573242 C8.90699167 17.91064516 8.90444341 16.19555721 8.90234375 14.48046875 C8.89722778 13.58896118 8.89211182 12.69745361 8.88684082 11.77893066 C8.88665955 10.50040222 8.88665955 10.50040222 8.88647461 9.19604492 C8.884254 8.45658127 8.88203339 7.71711761 8.87974548 6.95524597 C9 5 9 5 10 2 C6.7 1.67 3.4 1.34 0 1 C0 0.67 0 0.34 0 0 Z " fill="#8A8E90" transform="translate(342,178)"/>
<path d="M0 0 C9.57 0 19.14 0 29 0 C29 11 29 11 26.625 14.125 C22.55716348 17.03059751 19.57333954 17.27253244 14.6875 17.375 C12.71330078 17.44847656 12.71330078 17.44847656 10.69921875 17.5234375 C6.16477919 16.8818167 4.83661007 15.49567375 2 12 C-0.96228611 7.90922394 0 5.7925197 0 0 Z " fill="#D8DDE1" transform="translate(241,328)"/>
<path d="M0 0 C1.09920273 0.00222061 2.19840546 0.00444122 3.33091736 0.00672913 C4.57212845 0.00680466 5.81333954 0.00688019 7.09216309 0.00695801 C8.45682311 0.01206541 9.82148274 0.01728142 11.18614197 0.02259827 C12.57476755 0.02446251 13.96339379 0.02588638 15.35202026 0.02688599 C19.01319686 0.03071065 22.67433402 0.04054048 26.335495 0.05158997 C30.06890835 0.06180519 33.80232805 0.06638384 37.53575134 0.07142639 C44.86584748 0.08216281 52.19591108 0.0992386 59.52598572 0.12025452 C59.65098572 2.49525452 59.65098572 2.49525452 59.52598572 5.12025452 C57.52598572 7.12025452 57.52598572 7.12025452 55.01437378 7.36749268 C53.95593765 7.36606766 52.89750153 7.36464264 51.80699158 7.36317444 C50.01019203 7.36778938 50.01019203 7.36778938 48.17709351 7.37249756 C46.22864281 7.36171928 46.22864281 7.36171928 44.24082947 7.35072327 C42.90086918 7.34953152 41.56090806 7.34907829 40.22094727 7.34933472 C37.41233595 7.34776979 34.60385209 7.33947875 31.79527283 7.32606506 C28.18800652 7.30905878 24.58088015 7.30525117 20.97357845 7.30601025 C18.20700739 7.30573888 15.44046716 7.30026327 12.67390633 7.2930088 C10.69458517 7.28826225 8.71525752 7.28654412 6.7359314 7.28485107 C4.94386009 7.2752813 4.94386009 7.2752813 3.11558533 7.26551819 C2.05794479 7.26170639 1.00030426 7.25789459 -0.08938599 7.25396729 C-2.47401428 7.12025452 -2.47401428 7.12025452 -3.47401428 6.12025452 C-3.59901428 3.62025452 -3.59901428 3.62025452 -3.47401428 1.12025452 C-2.47401428 0.12025452 -2.47401428 0.12025452 0 0 Z " fill="#9B9FA0" transform="translate(295.47401428222656,264.87974548339844)"/>
<path d="M0 0 C1.17792114 -0.00315216 2.35584229 -0.00630432 3.56945801 -0.009552 C4.85171265 -0.00752777 6.13396729 -0.00550354 7.45507812 -0.00341797 C8.76085815 -0.00437469 10.06663818 -0.00533142 11.4119873 -0.00631714 C14.17945535 -0.0077938 16.94689116 -0.00564058 19.71435547 -0.00097656 C23.26895462 0.00472073 26.82347827 0.00144155 30.37807465 -0.00454903 C33.75791526 -0.00902294 37.13773536 -0.00589433 40.51757812 -0.00341797 C41.79983276 -0.0054422 43.0820874 -0.00746643 44.40319824 -0.009552 C46.17007996 -0.00482376 46.17007996 -0.00482376 47.97265625 0 C49.0155481 0.00079559 50.05843994 0.00159119 51.13293457 0.00241089 C53.48632812 0.12939453 53.48632812 0.12939453 54.48632812 1.12939453 C54.52696645 2.79556568 54.52904913 4.46327548 54.48632812 6.12939453 C51.3675543 7.16898581 49.20015906 7.25619429 45.92919922 7.25878906 C44.79147064 7.26194122 43.65374207 7.26509338 42.48153687 7.26834106 C41.25335236 7.26631683 40.02516785 7.2642926 38.75976562 7.26220703 C36.87192856 7.26364212 36.87192856 7.26364212 34.94595337 7.2651062 C32.28457202 7.26578712 29.62328233 7.26443952 26.96191406 7.25976562 C23.54413378 7.25405692 20.12643183 7.2573568 16.7086544 7.26333809 C13.45485528 7.26781011 10.20106576 7.26468426 6.94726562 7.26220703 C5.09891617 7.26524338 5.09891617 7.26524338 3.21322632 7.26834106 C2.08180206 7.2651889 0.95037781 7.26203674 -0.21533203 7.25878906 C-1.21666168 7.25799347 -2.21799133 7.25719788 -3.24966431 7.25637817 C-5.51367188 7.12939453 -5.51367188 7.12939453 -6.51367188 6.12939453 C-6.63867188 3.62939453 -6.63867188 3.62939453 -6.51367188 1.12939453 C-4.770678 -0.61359934 -2.36960935 0.00180771 0 0 Z " fill="#959A9C" transform="translate(166.513671875,282.87060546875)"/>
<path d="M0 0 C1.02290634 0.00142502 2.04581268 0.00285004 3.09971619 0.00431824 C4.25754105 0.00124161 5.41536591 -0.00183502 6.60827637 -0.00500488 C7.86349594 0.00218063 9.11871552 0.00936615 10.41197205 0.01676941 C12.3352256 0.01745674 12.3352256 0.01745674 14.29733276 0.01815796 C17.01178903 0.01972278 19.72611341 0.02801303 22.4405365 0.04142761 C25.92673569 0.05843446 29.4127901 0.06224148 32.89902592 0.06148243 C36.21586084 0.06181906 39.53264786 0.07065279 42.84947205 0.07926941 C44.73533775 0.08093864 44.73533775 0.08093864 46.65930176 0.0826416 C47.81397446 0.08902145 48.96864716 0.09540131 50.15830994 0.10197449 C51.69147606 0.10769218 51.69147606 0.10769218 53.25561523 0.11352539 C55.5643158 0.24723816 55.5643158 0.24723816 56.5643158 1.24723816 C56.6893158 3.74723816 56.6893158 3.74723816 56.5643158 6.24723816 C55.5643158 7.24723816 55.5643158 7.24723816 53.20419312 7.36749268 C52.15828506 7.36527206 51.11237701 7.36305145 50.03477478 7.36076355 C48.85362595 7.36068802 47.67247711 7.36061249 46.45553589 7.36053467 C45.1701442 7.35537338 43.8847525 7.3502121 42.56040955 7.34489441 C41.25225784 7.34347946 39.94410614 7.34206451 38.59631348 7.34060669 C35.11268721 7.33678226 31.6291024 7.32695262 28.14549255 7.31590271 C24.59304872 7.30568698 21.0405982 7.30110872 17.48814392 7.29606628 C10.51351747 7.28533028 3.53891862 7.26825476 -3.4356842 7.24723816 C-4.0606842 4.87223816 -4.0606842 4.87223816 -4.4356842 2.24723816 C-2.4356842 0.24723816 -2.4356842 0.24723816 0 0 Z " fill="#949799" transform="translate(298.43568420410156,282.7527618408203)"/>
<path d="M0 0 C0.33 0 0.66 0 1 0 C1 3.96 1 7.92 1 12 C-0.2375 11.938125 -1.475 11.87625 -2.75 11.8125 C-6.48182306 11.79272002 -8.20413505 12.41920158 -11 15 C-11.66 15 -12.32 15 -13 15 C-13 14.01 -13 13.02 -13 12 C-13.78375 12.474375 -14.5675 12.94875 -15.375 13.4375 C-16.88948678 14.33898023 -18.4235897 15.21179485 -20 16 C-20 15.34 -20 14.68 -20 14 C-23.47914843 13.9705809 -26.95826417 13.95306208 -30.4375 13.9375 C-31.41138672 13.92912109 -32.38527344 13.92074219 -33.38867188 13.91210938 C-39.34778969 13.89217922 -45.09067683 14.22390482 -51 15 C-51 14.34 -51 13.68 -51 13 C-56.445 12.505 -56.445 12.505 -62 12 C-62.33 13.32 -62.66 14.64 -63 16 C-67.66107601 14.33533 -67.82743749 12.75884377 -71 8 C-47.57 8 -24.14 8 0 8 C0 5.36 0 2.72 0 0 Z " fill="#9BA0A2" transform="translate(222,312)"/>
<path d="M0 0 C20.79 0 41.58 0 63 0 C62.67 1.98 62.34 3.96 62 6 C41.54 6 21.08 6 0 6 C-1 2 -1 2 0 0 Z " fill="#989DA1" transform="translate(292,248)"/>
<path d="M0 0 C0.04254356 1.99954746 0.04080783 4.00041636 0 6 C-1 7 -1 7 -3.36012268 7.12025452 C-4.40603073 7.11803391 -5.45193878 7.11581329 -6.52954102 7.11352539 C-7.71068985 7.11344986 -8.89183868 7.11337433 -10.10877991 7.11329651 C-11.3941716 7.10813522 -12.67956329 7.10297394 -14.00390625 7.09765625 C-15.31205795 7.0962413 -16.62020966 7.09482635 -17.96800232 7.09336853 C-21.45162859 7.0895441 -24.93521339 7.07971446 -28.41882324 7.06866455 C-31.97126708 7.05844882 -35.52371759 7.05387056 -39.07617188 7.04882812 C-46.05079832 7.03809212 -53.02539717 7.0210166 -60 7 C-60.66 5.35 -61.32 3.7 -62 2 C-60.39986162 0.39986162 -58.68840291 0.83508945 -56.47119141 0.79467773 C-55.50573395 0.77473251 -54.54027649 0.75478729 -53.54556274 0.73423767 C-52.49154266 0.71752518 -51.43752258 0.70081268 -50.3515625 0.68359375 C-49.26926361 0.66281265 -48.18696472 0.64203156 -47.0718689 0.62062073 C-43.58964648 0.5550179 -40.10734298 0.49631525 -36.625 0.4375 C-34.31379412 0.39430443 -32.00259602 0.3506898 -29.69140625 0.30664062 C-19.79299305 0.12363886 -9.90042104 -0.03218919 0 0 Z " fill="#939899" transform="translate(221,265)"/>
<path d="M0 0 C11.22 0 22.44 0 34 0 C34 3.63 34 7.26 34 11 C22.78 11 11.56 11 0 11 C0 7.37 0 3.74 0 0 Z " fill="#DCE3E8" transform="translate(239,309)"/>
<path d="M0 0 C0.9662606 -0.00043808 0.9662606 -0.00043808 1.95204163 -0.00088501 C4.07859831 0.00050694 6.20480344 0.0160614 8.33129883 0.03173828 C9.80674549 0.0354689 11.28219463 0.03831564 12.75764465 0.04031372 C16.6391383 0.04794637 20.52048204 0.06759161 24.4019165 0.08972168 C28.36338269 0.11018809 32.32487312 0.11931713 36.28637695 0.12939453 C44.05792964 0.15083792 51.82935884 0.18496933 59.60083008 0.22705078 C58.72583008 4.10205078 58.72583008 4.10205078 57.60083008 5.22705078 C55.60731578 5.35074403 53.60946537 5.40501468 51.61230469 5.43237305 C49.6904258 5.46229088 49.6904258 5.46229088 47.72972107 5.49281311 C46.32087324 5.50979875 44.91202412 5.52667751 43.50317383 5.54345703 C42.06970103 5.56401994 40.63623439 5.58501622 39.20277405 5.60643005 C35.42329888 5.66171938 31.64376838 5.71109823 27.86419678 5.75927734 C24.01008153 5.80944244 20.15604699 5.86515449 16.30200195 5.92041016 C8.73501099 6.0280756 1.16795271 6.1289894 -6.39916992 6.22705078 C-7.05916992 13.81705078 -7.71916992 21.40705078 -8.39916992 29.22705078 C-8.72916992 29.22705078 -9.05916992 29.22705078 -9.39916992 29.22705078 C-9.48591421 24.76883912 -9.53947505 20.31084274 -9.58666992 15.85205078 C-9.61180664 14.58103516 -9.63694336 13.31001953 -9.6628418 12.00048828 C-9.67250977 10.78876953 -9.68217773 9.57705078 -9.69213867 8.32861328 C-9.70784912 7.20793457 -9.72355957 6.08725586 -9.73974609 4.93261719 C-9.62735596 4.03978027 -9.51496582 3.14694336 -9.39916992 2.22705078 C-5.81400964 -0.16305607 -4.25650025 -0.01621524 0 0 Z " fill="#7E8689" transform="translate(169.399169921875,177.77294921875)"/>
<path d="M0 0 C20.46 0 40.92 0 62 0 C62 1.65 62 3.3 62 5 C60.24481894 6.75518106 57.77650285 6.12760783 55.39453125 6.12939453 C54.19658936 6.13254669 52.99864746 6.13569885 51.7644043 6.13894653 C50.46027588 6.1369223 49.15614746 6.13489807 47.8125 6.1328125 C46.47110985 6.1334856 45.12971981 6.13445568 43.78833008 6.13571167 C40.97378379 6.13718836 38.15926918 6.13503504 35.34472656 6.13037109 C31.72959369 6.12467381 28.11453505 6.12795297 24.49940491 6.13394356 C21.72855058 6.13754997 18.95771398 6.13641022 16.18685913 6.13381577 C14.20310417 6.13282033 12.21934853 6.13586741 10.2355957 6.13894653 C9.03765381 6.13579437 7.83971191 6.13264221 6.60546875 6.12939453 C5.54481201 6.12859894 4.48415527 6.12780334 3.39135742 6.12698364 C1 6 1 6 0 5 C0 3.35 0 1.7 0 0 Z " fill="#949A9F" transform="translate(160,248)"/>
<path d="M0 0 C0.43957031 0.48082031 0.87914062 0.96164063 1.33203125 1.45703125 C3.45383299 3.41982209 5.18133384 3.61909917 8 4 C8.33 3.01 8.66 2.02 9 1 C12 2 12 2 12.9831543 3.58227539 C13.26070557 4.24735107 13.53825684 4.91242676 13.82421875 5.59765625 C14.13037109 6.31630859 14.43652344 7.03496094 14.75195312 7.77539062 C15.06068359 8.53013672 15.36941406 9.28488281 15.6875 10.0625 C16.00783203 10.82111328 16.32816406 11.57972656 16.65820312 12.36132812 C17.44850702 14.23682542 18.22552197 16.1179123 19 18 C17.02 19.65 15.04 21.3 13 23 C11.29115995 21.37660195 9.62553283 19.70680947 8 18 C8 17.34 8 16.68 8 16 C4.63279613 17.39332574 3.0140476 18.9789286 1 22 C-2.48539917 21.35455571 -5.02819057 19.89865603 -8 18 C-6.443154 13.98696492 -4.68861143 10.0907072 -2.875 6.1875 C-2.33617187 5.02605469 -1.79734375 3.86460937 -1.2421875 2.66796875 C-0.62730469 1.34732422 -0.62730469 1.34732422 0 0 Z " fill="#ECF1F5" transform="translate(250,173)"/>
<path d="M0 0 C24.09 0 48.18 0 73 0 C71.02 2.31 69.04 4.62 67 7 C66.505 6.01 66.505 6.01 66 5 C66.33 4.34 66.66 3.68 67 3 C65.88625 3.309375 64.7725 3.61875 63.625 3.9375 C47.60409549 7.42891814 30.27491176 6.12292229 14 6 C14 5.34 14 4.68 14 4 C13.16855469 4.08378906 12.33710938 4.16757812 11.48046875 4.25390625 C10.39378906 4.35574219 9.30710937 4.45757812 8.1875 4.5625 C7.10855469 4.66691406 6.02960938 4.77132813 4.91796875 4.87890625 C2 5 2 5 -1 4 C-0.67 2.68 -0.34 1.36 0 0 Z " fill="#9AA0A4" transform="translate(291,320)"/>
<path d="M0 0 C54.78 0 109.56 0 166 0 C166 0.66 166 1.32 166 2 C163.62543835 2.1963696 161.25079981 2.38231294 158.875 2.5625 C158.20984375 2.61857422 157.5446875 2.67464844 156.859375 2.73242188 C153.87238554 2.95205345 151.15422156 3.02663485 148.19677734 2.51586914 C144.74060909 1.95814167 141.48447895 1.87046738 137.984375 1.8671875 C137.32850403 1.86623077 136.67263306 1.86527405 135.99688721 1.86428833 C134.61527408 1.86361141 133.23365769 1.86543146 131.85205078 1.86962891 C129.76978143 1.87494946 127.68773118 1.86968518 125.60546875 1.86328125 C119.02393797 1.86111821 112.55193171 1.9717237 106.02441406 2.88330078 C104 3 104 3 102.14081192 2.51480961 C99.91609654 1.9798234 98.00743881 1.87687508 95.72259521 1.87974548 C94.87568115 1.87837082 94.02876709 1.87699615 93.15618896 1.87557983 C92.23549622 1.87917511 91.31480347 1.88277039 90.36621094 1.88647461 C89.39026978 1.88632858 88.41432861 1.88618256 87.40881348 1.8860321 C84.18397802 1.8867286 80.95920037 1.89450874 77.734375 1.90234375 C75.49806754 1.90420886 73.26175967 1.90563233 71.02545166 1.90663147 C65.14000317 1.91044929 59.25457936 1.92027334 53.36914062 1.93133545 C47.36328465 1.94156534 41.35742468 1.94613248 35.3515625 1.95117188 C23.56769749 1.96189624 11.7838508 1.97896388 0 2 C0 1.34 0 0.68 0 0 Z " fill="#FAFAFA" transform="translate(156,126)"/>
<path d="M0 0 C0 0.66 0 1.32 0 2 C7.86550419 1.88220331 15.7308744 1.75737601 23.59619141 1.62768555 C26.27129929 1.58389779 28.94641119 1.54272323 31.62158203 1.50268555 C35.46915654 1.44482191 39.31659877 1.38117356 43.1640625 1.31640625 C44.95500839 1.29133751 44.95500839 1.29133751 46.78213501 1.26576233 C47.90284393 1.24581711 49.02355286 1.22587189 50.17822266 1.20532227 C51.15973297 1.18977798 52.14124329 1.1742337 53.15249634 1.15821838 C56.160219 0.99109761 59.03972965 0.54706794 62 0 C62.495 0.99 62.495 0.99 63 2 C67.76016226 2.07677681 72.33492459 2.00920679 77.0625 1.4375 C81.58660971 0.92774116 85.51658971 1.25276495 90 2 C90 2.33 90 2.66 90 3 C60.44723936 5.88345504 30.62517881 5.35611944 0.9727478 4.68060303 C-0.66584171 4.64375716 -2.30449761 4.60974591 -3.94320679 4.57867432 C-6.22292016 4.53367516 -8.50193752 4.47585008 -10.78125 4.4140625 C-12.7312793 4.36693115 -12.7312793 4.36693115 -14.72070312 4.31884766 C-17.73254084 4.02600519 -19.47128415 3.5904124 -22 2 C-14.56340812 -0.01670288 -7.68395543 -0.2137731 0 0 Z " fill="#B3B8BA" transform="translate(229,402)"/>
<path d="M0 0 C2.75329021 1.79562405 4.52627461 3.05254922 6 6 C6.375 8.8125 6.375 8.8125 6 12 C3.5625 14.8125 3.5625 14.8125 1 17 C0.67 17.33 0.34 17.66 0 18 C-4.27424083 18.49318163 -6.33545657 18.4524551 -9.9375 16 C-12.23092162 12.66411401 -12.75815509 10.90015906 -12.48046875 6.9375 C-10.87278432 0.45447986 -5.98096831 -0.96122705 0 0 Z " fill="#22313E" transform="translate(353,132)"/>
<path d="M0 0 C2.875 1.375 2.875 1.375 5 4 C5.64377165 7.42038677 5.82133394 10.60704116 5 14 C2.96045452 16.08051849 1.61690659 16.89094546 -1.25390625 17.3984375 C-2.01574219 17.39070313 -2.77757812 17.38296875 -3.5625 17.375 C-4.32691406 17.38273437 -5.09132813 17.39046875 -5.87890625 17.3984375 C-8.54120748 16.89833672 -9.39240034 16.15653613 -11 14 C-11.72238405 11.01414591 -12.20927223 8.9821293 -12 6 C-8.74238589 0.72041851 -6.13812058 -0.60177653 0 0 Z " fill="#20303E" transform="translate(325,132)"/>
<path d="M0 0 C0.33 0.66 0.66 1.32 1 2 C5.62 2 10.24 2 15 2 C15 2.66 15 3.32 15 4 C61.53 4.33 108.06 4.66 156 5 C156 5.33 156 5.66 156 6 C155.15793031 6.00331015 154.31586061 6.00662029 153.44827366 6.01003075 C132.9408984 6.09131824 112.43359653 6.18342955 91.92632389 6.28752708 C82.00908507 6.33760836 72.09185432 6.38405177 62.17456055 6.421875 C53.52874047 6.45485829 44.88298392 6.49472444 36.23723406 6.54279006 C31.66112488 6.56799208 27.08505752 6.58979186 22.50889778 6.60334396 C18.19725982 6.61622158 13.88576571 6.63833695 9.57420731 6.66738319 C7.99608483 6.67641456 6.41793921 6.68213877 4.83979225 6.68421364 C-3.00970204 6.69637665 -10.39405706 6.86376263 -18 9 C-14.25474201 5.25474201 -10.01729091 5.31090051 -5 5 C-5 4.34 -5 3.68 -5 3 C-2.5 1.375 -2.5 1.375 0 0 Z " fill="#F6F9FB" transform="translate(163,111)"/>
<path d="M0 0 C1.79133978 -0.05391993 3.58313899 -0.09275571 5.375 -0.125 C6.37273437 -0.14820313 7.37046875 -0.17140625 8.3984375 -0.1953125 C11 0 11 0 13 2 C13.24050903 3.98684692 13.24050903 3.98684692 13.22705078 6.44970703 C13.22682419 7.83091232 13.22682419 7.83091232 13.22659302 9.24002075 C13.21627045 10.23589203 13.20594788 11.23176331 13.1953125 12.2578125 C13.1924826 13.27600067 13.18965271 14.29418884 13.18673706 15.3432312 C13.1755177 18.603939 13.15040996 21.86437484 13.125 25.125 C13.11497247 27.33202729 13.10584623 29.53905888 13.09765625 31.74609375 C13.07557268 37.16415572 13.04207795 42.58205843 13 48 C11.66666667 48 10.33333333 48 9 48 C8.97530331 41.93107399 8.95714158 35.86217717 8.94506836 29.79321289 C8.94003586 27.72810354 8.93320931 25.66299776 8.92456055 23.59790039 C8.91244764 20.63166422 8.90676089 17.66547511 8.90234375 14.69921875 C8.89460182 13.31158577 8.89460182 13.31158577 8.88670349 11.8959198 C8.88662796 11.03525406 8.88655243 10.17458832 8.88647461 9.2878418 C8.884254 8.53061325 8.88203339 7.7733847 8.87974548 6.99320984 C9 5 9 5 10 2 C6.7 1.67 3.4 1.34 0 1 C0 0.67 0 0.34 0 0 Z " fill="#70787F" transform="translate(342,178)"/>
<path d="M0 0 C0.33 0 0.66 0 1 0 C1 3.96 1 7.92 1 12 C-0.2375 11.938125 -1.475 11.87625 -2.75 11.8125 C-6.48182306 11.79272002 -8.20413505 12.41920158 -11 15 C-11.66 15 -12.32 15 -13 15 C-13 14.01 -13 13.02 -13 12 C-13.78375 12.474375 -14.5675 12.94875 -15.375 13.4375 C-16.88948678 14.33898023 -18.4235897 15.21179485 -20 16 C-20 15.34 -20 14.68 -20 14 C-23.47914843 13.9705809 -26.95826417 13.95306208 -30.4375 13.9375 C-31.41138672 13.92912109 -32.38527344 13.92074219 -33.38867188 13.91210938 C-39.34778969 13.89217922 -45.09067683 14.22390482 -51 15 C-51 14.34 -51 13.68 -51 13 C-51.99 12.67 -52.98 12.34 -54 12 C-47.37834486 11.0551835 -40.80597609 10.69189422 -34.125 10.4375 C-33.10019531 10.39431641 -32.07539063 10.35113281 -31.01953125 10.30664062 C-26.21796078 10.11445578 -21.43063918 9.9795853 -16.625 10.00390625 C-13.01110365 10.02164627 -9.47374065 9.86910161 -5.875 9.5 C-4.94429687 9.4071875 -4.01359375 9.314375 -3.0546875 9.21875 C-2.03761719 9.11046875 -2.03761719 9.11046875 -1 9 C-0.67 6.03 -0.34 3.06 0 0 Z " fill="#B2B7B9" transform="translate(222,312)"/>
<path d="M0 0 C1.39025391 0.01353516 1.39025391 0.01353516 2.80859375 0.02734375 C5.08100077 0.05077063 7.3528618 0.08357252 9.625 0.125 C9.625 0.455 9.625 0.785 9.625 1.125 C3.685 1.455 -2.255 1.785 -8.375 2.125 C10.93 2.62 10.93 2.62 30.625 3.125 C26.69476569 5.09011716 25.32078987 5.37131096 21.12207031 5.35205078 C20.02123108 5.35189972 18.92039185 5.35174866 17.78619385 5.35159302 C16.60378113 5.34127045 15.42136841 5.33094788 14.203125 5.3203125 C12.38044098 5.31606766 12.38044098 5.31606766 10.52093506 5.31173706 C6.63885665 5.30053954 2.75700871 5.27543534 -1.125 5.25 C-3.75650709 5.23996966 -6.38801779 5.23084391 -9.01953125 5.22265625 C-15.47143284 5.20060157 -21.92319995 5.16712804 -28.375 5.125 C-28.045 4.465 -27.715 3.805 -27.375 3.125 C-25.08203125 2.78125 -25.08203125 2.78125 -22.1875 2.625 C-19.0610343 2.45392117 -16.60097228 2.21018667 -13.66015625 1.1015625 C-9.07548286 -0.26130117 -4.75254869 -0.08813571 0 0 Z " fill="#9EA4A8" transform="translate(258.375,398.875)"/>
<path d="M0 0 C0 0.66 0 1.32 0 2 C7.86550419 1.88220331 15.7308744 1.75737601 23.59619141 1.62768555 C26.27129929 1.58389779 28.94641119 1.54272323 31.62158203 1.50268555 C35.46915654 1.44482191 39.31659877 1.38117356 43.1640625 1.31640625 C44.95500839 1.29133751 44.95500839 1.29133751 46.78213501 1.26576233 C47.90284393 1.24581711 49.02355286 1.22587189 50.17822266 1.20532227 C51.15973297 1.18977798 52.14124329 1.1742337 53.15249634 1.15821838 C56.160219 0.99109761 59.03972965 0.54706794 62 0 C62 0.99 62 1.98 62 3 C51.63854934 3.1770012 41.27698643 3.34295445 30.91513443 3.49477577 C26.10379763 3.56561906 21.2925829 3.64027758 16.48144531 3.72363281 C11.83909149 3.80392378 7.19668434 3.87422218 2.55406952 3.93757248 C0.78218758 3.96351096 -0.98964528 3.99305964 -2.76140594 4.02626419 C-5.2416206 4.07213127 -7.72169882 4.10519919 -10.20214844 4.13525391 C-10.93582642 4.1517952 -11.66950439 4.16833649 -12.42541504 4.18537903 C-16.12817815 4.21628759 -18.85751833 4.05992761 -22 2 C-14.56340812 -0.01670288 -7.68395543 -0.2137731 0 0 Z " fill="#A9AEB1" transform="translate(229,402)"/>
<path d="M0 0 C0.33 0.66 0.66 1.32 1 2 C21.46 2 41.92 2 63 2 C58.8810066 4.0594967 55.84456829 4.43424397 51.375 4.625 C50.23442139 4.68192017 50.23442139 4.68192017 49.07080078 4.73999023 C37.72393678 5.23318627 26.35430727 5.08575761 15 5 C15 4.34 15 3.68 15 3 C14.16855469 3.08378906 13.33710938 3.16757812 12.48046875 3.25390625 C11.39378906 3.35574219 10.30710937 3.45757812 9.1875 3.5625 C8.10855469 3.66691406 7.02960938 3.77132813 5.91796875 3.87890625 C3 4 3 4 0 3 C0 2.01 0 1.02 0 0 Z " fill="#B1B6B9" transform="translate(290,321)"/>
<path d="M0 0 C0.33 0 0.66 0 1 0 C1 33 1 66 1 100 C0.01 100 -0.98 100 -2 100 C-2 96.7 -2 93.4 -2 90 C-1.67 90 -1.34 90 -1 90 C-0.67 60.3 -0.34 30.6 0 0 Z " fill="#D0D2D5" transform="translate(244,202)"/>
<path d="M0 0 C1.875 1.0625 1.875 1.0625 3 3 C2.66666667 9.33333333 2.66666667 9.33333333 0 12 C-3.5 11.8125 -3.5 11.8125 -7 11 C-9 8 -9 8 -8.8125 4.9375 C-7.47741613 0.1106583 -4.61266905 -0.57658363 0 0 Z " fill="#0B222D" transform="translate(165,135)"/>
<path d="M0 0 C0.74168427 0.00444122 1.48336853 0.00888245 2.24752808 0.01345825 C3.50860886 0.01368484 3.50860886 0.01368484 4.79516602 0.01391602 C6.15773026 0.02939987 6.15773026 0.02939987 7.54782104 0.04519653 C8.47722504 0.04802643 9.40662903 0.05085632 10.36419678 0.05377197 C13.33959704 0.06498834 16.3146989 0.09009543 19.29000854 0.11550903 C21.30432712 0.12553696 23.31865041 0.13466313 25.33297729 0.14285278 C30.27710311 0.16493243 35.22100519 0.1994721 40.16500854 0.24050903 C40.16500854 0.57050903 40.16500854 0.90050903 40.16500854 1.24050903 C26.96500854 1.24050903 13.76500854 1.24050903 0.16500854 1.24050903 C0.16500854 2.56050903 0.16500854 3.88050903 0.16500854 5.24050903 C15.34500854 5.57050903 30.52500854 5.90050903 46.16500854 6.24050903 C46.16500854 6.57050903 46.16500854 6.90050903 46.16500854 7.24050903 C29.99500854 7.24050903 13.82500854 7.24050903 -2.83499146 7.24050903 C-3.16499146 5.59050903 -3.49499146 3.94050903 -3.83499146 2.24050903 C-1.83499146 0.24050903 -1.83499146 0.24050903 0 0 Z " fill="#B3B5B7" transform="translate(297.8349914550781,282.7594909667969)"/>
<path d="M0 0 C1.875 1.0625 1.875 1.0625 3 3 C2.66666667 9.33333333 2.66666667 9.33333333 0 12 C-2.80984248 12.36023622 -4.38241919 12.38332602 -6.8125 10.875 C-8.55198782 8.12844028 -8.39769128 6.18153026 -8 3 C-5.90534242 -0.30735407 -3.75951639 -0.56392746 0 0 Z " fill="#182631" transform="translate(206,135)"/>
<path d="M0 0 C1.875 1.0625 1.875 1.0625 3 3 C2.66666667 9.33333333 2.66666667 9.33333333 0 12 C-2.80984248 12.36023622 -4.38241919 12.38332602 -6.8125 10.875 C-8.55198782 8.12844028 -8.39769128 6.18153026 -8 3 C-5.90534242 -0.30735407 -3.75951639 -0.56392746 0 0 Z " fill="#16222B" transform="translate(186,135)"/>
<path d="M0 0 C0.33 0 0.66 0 1 0 C1.33 11.55 1.66 23.1 2 35 C0.68 35 -0.64 35 -2 35 C-2.22082273 23.13332646 -2.20337033 11.70540485 0 0 Z " fill="#D9DCE5" transform="translate(269,267)"/>
<path d="M0 0 C0.99 0 1.98 0 3 0 C3 2.31 3 4.62 3 7 C2.34 7 1.68 7 1 7 C0.67 6.34 0.34 5.68 0 5 C-1.73956658 6.73956658 -1.37190386 9.1936622 -1.5625 11.5625 C-1.64628906 12.57441406 -1.73007812 13.58632813 -1.81640625 14.62890625 C-1.87699219 15.41136719 -1.93757813 16.19382812 -2 17 C-1.01 16.67 -0.02 16.34 1 16 C0.67 16.99 0.34 17.98 0 19 C-1.65 19.33 -3.3 19.66 -5 20 C-7.26273207 16.44181064 -7.07331744 13.87452049 -6.625 9.75 C-6.51414062 8.67234375 -6.40328125 7.5946875 -6.2890625 6.484375 C-6.19367188 5.66453125 -6.09828125 4.8446875 -6 4 C-5.01 4 -4.02 4 -3 4 C-2.67 3.34 -2.34 2.68 -2 2 C-1.34 2 -0.68 2 0 2 C0 1.34 0 0.68 0 0 Z " fill="#2D4050" transform="translate(285,286)"/>
<path d="M0 0 C-3.51191483 1.10961564 -6.63334228 1.03443358 -10.296875 0.87890625 C-11.50214844 0.83056641 -12.70742188 0.78222656 -13.94921875 0.73242188 C-15.83060547 0.64831055 -15.83060547 0.64831055 -17.75 0.5625 C-19.01972656 0.51029297 -20.28945313 0.45808594 -21.59765625 0.40429688 C-24.73202407 0.27468016 -27.86606874 0.13971529 -31 0 C-30.67 -0.99 -30.34 -1.98 -30 -3 C-18.47648301 -5.82686276 -10.81450274 -4.18535301 0 0 Z " fill="#F5F8FA" transform="translate(367,117)"/>
<path d="M0 0 C0.99 0 1.98 0 3 0 C5.1875 2.5 5.1875 2.5 7 5 C6 7 6 7 4 10 C4.33 10.66 4.66 11.32 5 12 C4.236875 11.62875 3.47375 11.2575 2.6875 10.875 C1.800625 10.58625 0.91375 10.2975 0 10 C-0.99 10.66 -1.98 11.32 -3 12 C-3.33 11.01 -3.66 10.02 -4 9 C-4.99 8.34 -5.98 7.68 -7 7 C-4.66666667 4.66666667 -2.33333333 2.33333333 0 0 Z " fill="#0C141E" transform="translate(255,189)"/>
<path d="M0 0 C3.63 0 7.26 0 11 0 C11.04254356 1.99954746 11.04080783 4.00041636 11 6 C10 7 10 7 6.58178711 7.11352539 C5.06363012 7.11336628 3.54546771 7.10767226 2.02734375 7.09765625 C1.22970108 7.0962413 0.43205841 7.09482635 -0.38975525 7.09336853 C-2.94737435 7.08775316 -5.50490718 7.07519812 -8.0625 7.0625 C-9.79231645 7.05748698 -11.52213426 7.05292373 -13.25195312 7.04882812 C-17.50133553 7.03777875 -21.75065312 7.02050386 -26 7 C-26 6.67 -26 6.34 -26 6 C-25.16750732 5.98541748 -24.33501465 5.97083496 -23.47729492 5.95581055 C-20.38510347 5.8947137 -17.29357918 5.82055444 -14.2019043 5.73754883 C-12.2070937 5.68798681 -10.21192743 5.65348867 -8.21679688 5.61914062 C-6.96318359 5.58369141 -5.70957031 5.54824219 -4.41796875 5.51171875 C-3.26063232 5.48553467 -2.1032959 5.45935059 -0.91088867 5.43237305 C2.20561809 4.96945822 3.14546972 4.47751402 5 2 C2.525 1.505 2.525 1.505 0 1 C0 0.67 0 0.34 0 0 Z " fill="#A8ACAC" transform="translate(210,265)"/>
<path d="M0 0 C0.99 0.33 1.98 0.66 3 1 C4.89212737 1.22179785 6.78884472 1.40614015 8.6875 1.5625 C9.68136719 1.64628906 10.67523438 1.73007812 11.69921875 1.81640625 C12.83810547 1.90728516 12.83810547 1.90728516 14 2 C14.33 1.34 14.66 0.68 15 0 C15.99 0.33 16.98 0.66 18 1 C20.28878326 1.20244766 22.58129605 1.36422048 24.875 1.5 C29.01187126 1.74592865 32.95633937 2.07749187 37 3 C37 3.33 37 3.66 37 4 C8.06736359 4.20638953 8.06736359 4.20638953 -6 3 C-6 2.67 -6 2.34 -6 2 C-4.02 2 -2.04 2 0 2 C0 1.34 0 0.68 0 0 Z " fill="#A1A7AA" transform="translate(258,396)"/>
<path d="M0 0 C1.39025391 0.01353516 1.39025391 0.01353516 2.80859375 0.02734375 C5.08100077 0.05077063 7.3528618 0.08357252 9.625 0.125 C9.625 0.455 9.625 0.785 9.625 1.125 C3.685 1.455 -2.255 1.785 -8.375 2.125 C-1.115 2.455 6.145 2.785 13.625 3.125 C13.625 3.455 13.625 3.785 13.625 4.125 C0.755 4.125 -12.115 4.125 -25.375 4.125 C-25.375 3.795 -25.375 3.465 -25.375 3.125 C-24.79492188 3.07601563 -24.21484375 3.02703125 -23.6171875 2.9765625 C-22.83601562 2.90179688 -22.05484375 2.82703125 -21.25 2.75 C-20.10144531 2.64558594 -20.10144531 2.64558594 -18.9296875 2.5390625 C-16.3083131 2.20512806 -16.3083131 2.20512806 -13.71875 1.09375 C-9.10658829 -0.24248377 -4.7725422 -0.08850649 0 0 Z " fill="#93999E" transform="translate(258.375,398.875)"/>
<path d="M0 0 C0.99 0 1.98 0 3 0 C3.65858778 3.35814564 4.13100814 6.57282709 4 10 C1.51045945 13.3885413 -0.02953076 14.67651025 -4 16 C-6.00875442 15.72428861 -8.01178687 15.39764263 -10 15 C-10 14.67 -10 14.34 -10 14 C-9.195625 13.87625 -8.39125 13.7525 -7.5625 13.625 C-6.716875 13.41875 -5.87125 13.2125 -5 13 C-4.67 12.34 -4.34 11.68 -4 11 C-3.34 11 -2.68 11 -2 11 C-1.34 7.37 -0.68 3.74 0 0 Z " fill="#B2BEC7" transform="translate(266,329)"/>
<path d="M0 0 C3.89847716 3.2893401 3.89847716 3.2893401 4.375 6.625 C4 9 4 9 2 11 C1.75787127 12.98128508 1.75787127 12.98128508 1.875 15.125 C1.91625 16.40375 1.9575 17.6825 2 19 C-1 15.375 -1 15.375 -1 12 C-1.66 12 -2.32 12 -3 12 C-3 9.03 -3 6.06 -3 3 C-2.01 3.495 -2.01 3.495 -1 4 C-0.67 2.68 -0.34 1.36 0 0 Z " fill="#354353" transform="translate(382,150)"/>
<path d="M0 0 C3.08315385 -0.08733513 6.16598827 -0.14050127 9.25 -0.1875 C10.12269531 -0.21263672 10.99539062 -0.23777344 11.89453125 -0.26367188 C13.16103516 -0.27817383 13.16103516 -0.27817383 14.453125 -0.29296875 C15.61569824 -0.31653442 15.61569824 -0.31653442 16.80175781 -0.34057617 C19 0 19 0 23 3 C15.74 3 8.48 3 1 3 C1 4.65 1 6.3 1 8 C0.67 8 0.34 8 0 8 C0 5.36 0 2.72 0 0 Z " fill="#BAC0C6" transform="translate(241,328)"/>
<path d="M0 0 C1.39456452 0.00667256 2.78911118 0.01863093 4.18359375 0.03515625 C4.89451172 0.03966797 5.60542969 0.04417969 6.33789062 0.04882812 C8.09899388 0.06064761 9.86005411 0.07858362 11.62109375 0.09765625 C11.62109375 0.42765625 11.62109375 0.75765625 11.62109375 1.09765625 C5.18609375 1.59265625 5.18609375 1.59265625 -1.37890625 2.09765625 C-2.03890625 10.67765625 -2.69890625 19.25765625 -3.37890625 28.09765625 C-3.70890625 28.09765625 -4.03890625 28.09765625 -4.37890625 28.09765625 C-4.40776963 23.61850297 -4.42565812 19.13937334 -4.44140625 14.66015625 C-4.44978516 13.38076172 -4.45816406 12.10136719 -4.46679688 10.78320312 C-4.47001953 9.56826172 -4.47324219 8.35332031 -4.4765625 7.1015625 C-4.48179932 5.97564697 -4.48703613 4.84973145 -4.49243164 3.68969727 C-4.32061796 -0.23319692 -4.03888491 0.11673078 0 0 Z " fill="#6C7176" transform="translate(164.37890625,178.90234375)"/>
<path d="M0 0 C6.91689961 2.90338996 13.4595559 6.33246125 20 10 C20 10.33 20 10.66 20 11 C15.12335991 11.34833144 12.22949995 10.41685712 8 8 C8 7.34 8 6.68 8 6 C6.68 6 5.36 6 4 6 C4 5.34 4 4.68 4 4 C1.525 3.01 1.525 3.01 -1 2 C-0.67 1.34 -0.34 0.68 0 0 Z " fill="#CDD1D5" transform="translate(316,102)"/>
<path d="M0 0 C7.92 0 15.84 0 24 0 C24 0.33 24 0.66 24 1 C19.66881013 2.64624411 16.06562507 3.27185655 11.4375 3.25 C10.34308594 3.25515625 9.24867188 3.2603125 8.12109375 3.265625 C5.01913386 3.00162841 2.80223963 2.31501748 0 1 C0 0.67 0 0.34 0 0 Z " fill="#93989B" transform="translate(245,379)"/>
<path d="M0 0 C0.66 0.33 1.32 0.66 2 1 C1.38511719 1.67095703 1.38511719 1.67095703 0.7578125 2.35546875 C0.21898437 2.96003906 -0.31984375 3.56460938 -0.875 4.1875 C-1.40867188 4.77917969 -1.94234375 5.37085937 -2.4921875 5.98046875 C-6.19228898 10.93630416 -6.38490323 15.84509493 -6.625 21.8125 C-6.66367188 22.60076172 -6.70234375 23.38902344 -6.7421875 24.20117188 C-6.83588844 26.1337538 -6.91900779 28.06684376 -7 30 C-8.32 29.34 -9.64 28.68 -11 28 C-10.01 26.515 -10.01 26.515 -9 25 C-8.7537013 22.90366222 -8.59727862 20.79601417 -8.5 18.6875 C-8.28626309 14.08681293 -7.62089366 10.32020447 -6 6 C-5.34 6 -4.68 6 -4 6 C-3.71125 5.38125 -3.4225 4.7625 -3.125 4.125 C-2 2 -2 2 0 0 Z " fill="#E4E7EB" transform="translate(142,121)"/>
<path d="M0 0 C2.45391569 3.68087353 2.22802759 6.44355588 2.125 10.6875 C2.11597656 11.38939453 2.10695313 12.09128906 2.09765625 12.81445312 C2.07413704 14.54311525 2.03826713 16.27160145 2 18 C1.67 18 1.34 18 1 18 C0.67 16.35 0.34 14.7 0 13 C-0.66 13 -1.32 13 -2 13 C-2.05391993 11.20866022 -2.09275571 9.41686101 -2.125 7.625 C-2.14820313 6.62726563 -2.17140625 5.62953125 -2.1953125 4.6015625 C-2 2 -2 2 0 0 Z " fill="#31485A" transform="translate(285,290)"/>
<path d="M0 0 C0.99386719 0.00902344 1.98773438 0.01804687 3.01171875 0.02734375 C4.15060547 0.04474609 4.15060547 0.04474609 5.3125 0.0625 C5.3125 1.39583333 5.3125 2.72916667 5.3125 4.0625 C0.6925 4.0625 -3.9275 4.0625 -8.6875 4.0625 C-8.6875 3.0725 -8.6875 2.0825 -8.6875 1.0625 C-5.53819107 0.01273036 -3.29935544 -0.03881595 0 0 Z " fill="#C8D0D3" transform="translate(256.6875,340.9375)"/>
<path d="M0 0 C1.66611905 -0.042721 3.33382885 -0.04063832 5 0 C5.33 0.33 5.66 0.66 6 1 C8.32817964 1.36760731 10.6618385 1.70241581 13 2 C12.360625 2.433125 11.72125 2.86625 11.0625 3.3125 C8.73253997 4.91239177 8.73253997 4.91239177 8 8 C3.79373966 6.49776416 2.26099979 3.71449966 0 0 Z " fill="#B3B5BB" transform="translate(151,320)"/>
<path d="M0 0 C0.66 1.32 1.32 2.64 2 4 C2.66 4.33 3.32 4.66 4 5 C4.33 4.34 4.66 3.68 5 3 C5.125 9.75 5.125 9.75 4 12 C3.01 12 2.02 12 1 12 C0.67 12.66 0.34 13.32 0 14 C0 9.38 0 4.76 0 0 Z " fill="#ECEEEF" transform="translate(286,311)"/>
<path d="M0 0 C2 2 2 2 2.22705078 4.24658203 C2.21657715 5.15778809 2.20610352 6.06899414 2.1953125 7.0078125 C2.18886719 7.99394531 2.18242187 8.98007812 2.17578125 9.99609375 C2.15902344 11.02863281 2.14226562 12.06117188 2.125 13.125 C2.11597656 14.16527344 2.10695312 15.20554687 2.09765625 16.27734375 C2.07403747 18.85179092 2.04110149 21.42578212 2 24 C-0.42999536 21.72635823 -1.42805835 20.31726155 -2 17 C-1.34 17 -0.68 17 0 17 C0 11.39 0 5.78 0 0 Z " fill="#CFD6DF" transform="translate(132,271)"/>
<path d="M0 0 C1.32 0.33 2.64 0.66 4 1 C1.69 2.98 -0.62 4.96 -3 7 C-2.67 5.68 -2.34 4.36 -2 3 C-9.26 3 -16.52 3 -24 3 C-24 2.67 -24 2.34 -24 2 C-23.30849854 1.97494385 -22.61699707 1.9498877 -21.90454102 1.92407227 C-18.79032134 1.80847839 -15.67643211 1.68558758 -12.5625 1.5625 C-10.92958008 1.50352539 -10.92958008 1.50352539 -9.26367188 1.44335938 C-8.22919922 1.40146484 -7.19472656 1.35957031 -6.12890625 1.31640625 C-5.17056885 1.27974854 -4.21223145 1.24309082 -3.22485352 1.20532227 C-1.02861075 1.24165576 -1.02861075 1.24165576 0 0 Z " fill="#A9ADB0" transform="translate(360,320)"/>
<path d="M0 0 C0.66 0.99 1.32 1.98 2 3 C1.05125 2.95875 0.1025 2.9175 -0.875 2.875 C-4.10244856 2.65026182 -4.10244856 2.65026182 -6 5 C-6.16681109 8.08347826 -6.16681109 8.08347826 -6 11 C-7.5625 9.875 -7.5625 9.875 -9 8 C-8.875 4.9375 -8.875 4.9375 -8 2 C-4.79191085 -0.1387261 -3.72301503 -0.47730962 0 0 Z " fill="#222C35" transform="translate(165,135)"/>
<path d="M0 0 C7.48252838 1.37179687 14.05604954 3.92163279 21 7 C17.74004193 8.08557892 15.89457573 7.91310151 12.671875 6.78515625 C11.87265625 6.51123047 11.0734375 6.23730469 10.25 5.95507812 C9.425 5.66052734 8.6 5.36597656 7.75 5.0625 C6.90953125 4.77181641 6.0690625 4.48113281 5.203125 4.18164062 C3.13194269 3.46378767 1.06466738 2.73633881 -1 2 C-0.67 1.34 -0.34 0.68 0 0 Z " fill="#D9DEE3" transform="translate(290,81)"/>
<path d="M0 0 C0.33 0.66 0.66 1.32 1 2 C7.6 2 14.2 2 21 2 C21 2.99 21 3.98 21 5 C19.02 5 17.04 5 15 5 C15 4.34 15 3.68 15 3 C14.16855469 3.08378906 13.33710938 3.16757812 12.48046875 3.25390625 C11.39378906 3.35574219 10.30710937 3.45757812 9.1875 3.5625 C8.10855469 3.66691406 7.02960938 3.77132813 5.91796875 3.87890625 C3 4 3 4 0 3 C0 2.01 0 1.02 0 0 Z " fill="#B9BEC0" transform="translate(290,321)"/>
<path d="M0 0 C1.3293457 0.00483398 1.3293457 0.00483398 2.68554688 0.00976562 C4.05356445 0.02233398 4.05356445 0.02233398 5.44921875 0.03515625 C6.38056641 0.03966797 7.31191406 0.04417969 8.27148438 0.04882812 C10.55996248 0.06056391 12.84830683 0.07698262 15.13671875 0.09765625 C15.13671875 0.42765625 15.13671875 0.75765625 15.13671875 1.09765625 C13.20505859 1.18853516 13.20505859 1.18853516 11.234375 1.28125 C9.55597716 1.36563872 7.87759239 1.45028755 6.19921875 1.53515625 C4.92401367 1.59413086 4.92401367 1.59413086 3.62304688 1.65429688 C2.81416016 1.69619141 2.00527344 1.73808594 1.171875 1.78125 C0.04857788 1.83623657 0.04857788 1.83623657 -1.09741211 1.89233398 C-2.88789451 1.91536688 -2.88789451 1.91536688 -3.86328125 3.09765625 C-6.19625558 3.13858562 -8.5303335 3.14007348 -10.86328125 3.09765625 C-10.53328125 2.43765625 -10.20328125 1.77765625 -9.86328125 1.09765625 C-6.54992607 0.18971599 -3.4220938 -0.02207802 0 0 Z " fill="#8C9297" transform="translate(252.86328125,398.90234375)"/>
<path d="M0 0 C2.9375 0.8125 2.9375 0.8125 6 2 C7 5 7 5 5.5625 8.1875 C4.7890625 9.5796875 4.7890625 9.5796875 4 11 C3.34 10.67 2.68 10.34 2 10 C1.3671875 7.71484375 1.3671875 7.71484375 0.875 4.9375 C0.70742187 4.01839844 0.53984375 3.09929687 0.3671875 2.15234375 C0.24601563 1.44207031 0.12484375 0.73179687 0 0 Z " fill="#194757" transform="translate(240,177)"/>
<path d="M0 0 C0.33 0.66 0.66 1.32 1 2 C-1.57727544 7.36073291 -4.66391042 10.9595529 -9 15 C-9.66 14.67 -10.32 14.34 -11 14 C-10.45730469 13.32453125 -9.91460937 12.6490625 -9.35546875 11.953125 C-8.64003906 11.06109375 -7.92460937 10.1690625 -7.1875 9.25 C-6.47980469 8.36828125 -5.77210938 7.4865625 -5.04296875 6.578125 C-3.32494998 4.41007071 -1.64626024 2.22271099 0 0 Z " fill="#D1D6DD" transform="translate(377,317)"/>
<path d="M0 0 C0.99 0.66 1.98 1.32 3 2 C2.113125 2.5775 1.22625 3.155 0.3125 3.75 C-2.59042244 5.68068476 -5.30768649 7.78280064 -8 10 C-8.33 9.01 -8.66 8.02 -9 7 C-7.87720538 6.01830524 -6.75168527 5.03972702 -5.625 4.0625 C-4.68527344 3.24458984 -4.68527344 3.24458984 -3.7265625 2.41015625 C-2 1 -2 1 0 0 Z " fill="#1F3339" transform="translate(148,119)"/>
<path d="M0 0 C0.66 0 1.32 0 2 0 C2 4.95 2 9.9 2 15 C1.01 14.67 0.02 14.34 -1 14 C-0.67 9.38 -0.34 4.76 0 0 Z " fill="#E0E2E8" transform="translate(279,290)"/>
<path d="M0 0 C0.6875 1.75 0.6875 1.75 1 4 C-0.25 6.25 -0.25 6.25 -2 8 C-2.99 8 -3.98 8 -5 8 C-5.33 6.68 -5.66 5.36 -6 4 C-4.02 2.68 -2.04 1.36 0 0 Z " fill="#A4ADAF" transform="translate(284,323)"/>
<path d="M0 0 C0.99 0 1.98 0 3 0 C3 2.31 3 4.62 3 7 C2.34 7 1.68 7 1 7 C0.67 6.34 0.34 5.68 0 5 C-0.99 5.99 -1.98 6.98 -3 8 C-3.33 7.01 -3.66 6.02 -4 5 C-3.34 4.01 -2.68 3.02 -2 2 C-1.34 2 -0.68 2 0 2 C0 1.34 0 0.68 0 0 Z " fill="#263A49" transform="translate(285,286)"/>
<path d="M0 0 C2.97 0 5.94 0 9 0 C6 2 6 2 2 2 C2 3.98 2 5.96 2 8 C1.34 8 0.68 8 0 8 C0 5.36 0 2.72 0 0 Z " fill="#26343B" transform="translate(291,312)"/>
<path d="M0 0 C0.66 0.66 1.32 1.32 2 2 C1.01 5.3 0.02 8.6 -1 12 C-1.66 12 -2.32 12 -3 12 C-3 9.03 -3 6.06 -3 3 C-2.01 3.495 -2.01 3.495 -1 4 C-0.67 2.68 -0.34 1.36 0 0 Z " fill="#4E636F" transform="translate(382,150)"/>
<path d="M0 0 C0.33 0 0.66 0 1 0 C1 1.65 1 3.3 1 5 C0.34 5 -0.32 5 -1 5 C-1.66 6.32 -2.32 7.64 -3 9 C-3.66 8.01 -4.32 7.02 -5 6 C-3.35830472 3.97945196 -1.69088222 1.97956942 0 0 Z " fill="#3B4B51" transform="translate(131,151)"/>
<path d="M0 0 C0.66 0.33 1.32 0.66 2 1 C-1.3 3.97 -4.6 6.94 -8 10 C-8 7 -8 7 -6.25 5.17578125 C-5.5075 4.56089844 -4.765 3.94601562 -4 3.3125 C-3.2575 2.68988281 -2.515 2.06726563 -1.75 1.42578125 C-1.1725 0.95527344 -0.595 0.48476563 0 0 Z " fill="#CCD2D5" transform="translate(356,341)"/>
<path d="M0 0 C2.97 0.99 5.94 1.98 9 3 C8.67 3.66 8.34 4.32 8 5 C5.36 4.34 2.72 3.68 0 3 C0 2.01 0 1.02 0 0 Z " fill="#D2D5D6" transform="translate(306,98)"/>
<path d="M0 0 C0.8125 1.6875 0.8125 1.6875 1 4 C-1.3125 6.75 -1.3125 6.75 -4 9 C-4.66 9 -5.32 9 -6 9 C-4.47291037 5.56404834 -2.40072955 2.88087546 0 0 Z " fill="#CAD1DC" transform="translate(275,343)"/>
<path d="M0 0 C0.66 0 1.32 0 2 0 C1.34 1.98 0.68 3.96 0 6 C-0.66 6 -1.32 6 -2 6 C-2.33 7.32 -2.66 8.64 -3 10 C-3.75 8.375 -3.75 8.375 -4 6 C-2.1875 2.75 -2.1875 2.75 0 0 Z " fill="#D5DCE7" transform="translate(392,292)"/>
<path d="M0 0 C0.66 0 1.32 0 2 0 C4.14285714 7.42857143 4.14285714 7.42857143 5 11 C3.0625 10 3.0625 10 1 8 C0.33450549 5.30075428 0.18319237 2.79368363 0 0 Z " fill="#30394A" transform="translate(313,138)"/>
<path d="M0 0 C1.76462683 3.08809695 2 4.23312136 2 8 C0.68 7.67 -0.64 7.34 -2 7 C-1.34 4.69 -0.68 2.38 0 0 Z " fill="#CCCEDD" transform="translate(269,294)"/>
<path d="M0 0 C1.134375 0.020625 2.26875 0.04125 3.4375 0.0625 C3.4375 0.3925 3.4375 0.7225 3.4375 1.0625 C2.261875 1.2171875 2.261875 1.2171875 1.0625 1.375 C-1.89295181 1.83845022 -1.89295181 1.83845022 -3.5625 5.0625 C-4.5525 5.0625 -5.5425 5.0625 -6.5625 5.0625 C-4.14811644 0.07277397 -4.14811644 0.07277397 0 0 Z " fill="#1C2931" transform="translate(320.5625,132.9375)"/>
<path d="M0 0 C0.66 0.33 1.32 0.66 2 1 C-1.96 4.465 -1.96 4.465 -6 8 C-6.66 7.67 -7.32 7.34 -8 7 C-5.36 4.69 -2.72 2.38 0 0 Z " fill="#111D22" transform="translate(349,335)"/>
<path d="M0 0 C0.66 0 1.32 0 2 0 C1.25 6.75 1.25 6.75 -1 9 C-2.25541557 5.23375329 -1.37061958 3.62811066 0 0 Z " fill="#2C3840" transform="translate(119,171)"/>
<path d="M0 0 C0.99 0.33 1.98 0.66 3 1 C2.34 4.63 1.68 8.26 1 12 C0.67 12 0.34 12 0 12 C0 8.04 0 4.08 0 0 Z " fill="#F4F7FB" transform="translate(144,135)"/>
<path d="M0 0 C0.33 0.99 0.66 1.98 1 3 C1.99 3.33 2.98 3.66 4 4 C3.34 5.65 2.68 7.3 2 9 C1.34 9 0.68 9 0 9 C0 6.03 0 3.06 0 0 Z " fill="#CCD0D4" transform="translate(278,328)"/>
<path d="M0 0 C1.32 1.32 2.64 2.64 4 4 C2.02 4.33 0.04 4.66 -2 5 C-2 2 -2 2 0 0 Z " fill="#DCDFE6" transform="translate(255,198)"/>
<path d="M0 0 C0.66 0.33 1.32 0.66 2 1 C1.34 3.31 0.68 5.62 0 8 C-0.66 8 -1.32 8 -2 8 C-1.125 2.25 -1.125 2.25 0 0 Z " fill="#313A46" transform="translate(116,180)"/>
<path d="M0 0 C2 2 2 2 2 6 C0.68 5.67 -0.64 5.34 -2 5 C-1.34 3.35 -0.68 1.7 0 0 Z " fill="#172C37" transform="translate(240,179)"/>
<path d="M0 0 C0.721875 0.474375 1.44375 0.94875 2.1875 1.4375 C4.89475226 2.94152903 6.96194275 3.56599182 10 4 C10 4.33 10 4.66 10 5 C3.9453125 5.1953125 3.9453125 5.1953125 2 5 C1.34 4.34 0.68 3.68 0 3 C0 2.01 0 1.02 0 0 Z " fill="#F1F3F7" transform="translate(314,146)"/>
<path d="M0 0 C1.32 0 2.64 0 4 0 C4 1.32 4 2.64 4 4 C2.35 4 0.7 4 -1 4 C-0.67 2.68 -0.34 1.36 0 0 Z " fill="#E6EAF2" transform="translate(148,128)"/>
<path d="M0 0 C2.64 0.66 5.28 1.32 8 2 C7.67 2.66 7.34 3.32 7 4 C4.36 3.34 1.72 2.68 -1 2 C-0.67 1.34 -0.34 0.68 0 0 Z " fill="#D4D7D8" transform="translate(297,95)"/>
</svg>
