<?xml version="1.0" encoding="UTF-8"?>
<svg xmlns="http://www.w3.org/2000/svg" xmlns:xlink="http://www.w3.org/1999/xlink" width="48px" height="48px" viewBox="0 0 48 48" version="1.1">
<g id="surface1">
<path style=" stroke:none;fill-rule:nonzero;fill:rgb(95.294118%,50.196081%,12.54902%);fill-opacity:1;" d="M 29.402344 11.753906 C 29.433594 11.765625 29.46875 11.773438 29.5 11.785156 C 30.46875 12.109375 31.414062 12.5625 32.246094 13.15625 C 32.28125 13.183594 32.28125 13.183594 32.320312 13.210938 C 32.695312 13.480469 33.058594 13.761719 33.402344 14.070312 C 33.433594 14.097656 33.433594 14.097656 33.46875 14.128906 C 33.972656 14.582031 34.4375 15.070312 34.84375 15.613281 C 34.859375 15.636719 34.878906 15.660156 34.894531 15.683594 C 35.832031 16.933594 36.546875 18.359375 36.886719 19.890625 C 36.9375 20.113281 37.023438 20.3125 37.207031 20.449219 C 37.238281 20.464844 37.265625 20.476562 37.292969 20.488281 C 37.320312 20.503906 37.351562 20.515625 37.378906 20.53125 C 37.597656 20.601562 37.820312 20.601562 38.046875 20.601562 C 38.109375 20.601562 38.175781 20.605469 38.238281 20.605469 C 38.289062 20.605469 38.289062 20.605469 38.339844 20.605469 C 40.460938 20.636719 42.484375 21.214844 44.175781 22.527344 C 44.207031 22.550781 44.238281 22.574219 44.273438 22.601562 C 44.453125 22.742188 44.621094 22.890625 44.789062 23.042969 C 44.847656 23.09375 44.902344 23.144531 44.960938 23.195312 C 45.367188 23.550781 45.710938 23.957031 46.035156 24.386719 C 46.050781 24.40625 46.066406 24.425781 46.082031 24.445312 C 46.308594 24.753906 46.515625 25.070312 46.703125 25.402344 C 46.71875 25.429688 46.730469 25.457031 46.746094 25.484375 C 47.011719 25.957031 47.21875 26.441406 47.402344 26.949219 C 47.414062 26.972656 47.421875 26.996094 47.429688 27.023438 C 48.085938 28.804688 48.074219 30.832031 47.585938 32.648438 C 47.53125 32.765625 47.476562 32.808594 47.367188 32.878906 C 47.261719 32.898438 47.15625 32.894531 47.042969 32.894531 C 47.011719 32.894531 46.980469 32.894531 46.945312 32.894531 C 46.835938 32.894531 46.722656 32.894531 46.613281 32.894531 C 46.53125 32.894531 46.449219 32.894531 46.371094 32.894531 C 46.148438 32.894531 45.925781 32.894531 45.703125 32.894531 C 45.484375 32.894531 45.269531 32.894531 45.054688 32.894531 C 44.605469 32.894531 44.15625 32.894531 43.707031 32.894531 C 43.25 32.894531 42.796875 32.894531 42.339844 32.894531 C 42.3125 32.894531 42.285156 32.894531 42.253906 32.894531 C 42.136719 32.894531 42.019531 32.894531 41.902344 32.894531 C 40.8125 32.898438 39.722656 32.898438 38.636719 32.894531 C 38.601562 32.894531 38.570312 32.894531 38.535156 32.894531 C 38.488281 32.894531 38.488281 32.894531 38.4375 32.894531 C 37.453125 32.894531 36.46875 32.894531 35.484375 32.894531 C 35.417969 32.894531 35.351562 32.894531 35.285156 32.894531 C 35.019531 32.894531 34.757812 32.894531 34.492188 32.894531 C 33.75 32.894531 33.011719 32.894531 32.269531 32.894531 C 32.238281 32.894531 32.203125 32.894531 32.167969 32.894531 C 31.09375 32.894531 30.019531 32.894531 28.945312 32.894531 C 28.910156 32.894531 28.875 32.894531 28.839844 32.894531 C 28.273438 32.894531 27.707031 32.894531 27.140625 32.894531 C 24.894531 32.894531 22.648438 32.894531 20.402344 32.894531 C 19.835938 32.894531 19.269531 32.894531 18.703125 32.894531 C 18.667969 32.894531 18.632812 32.894531 18.597656 32.894531 C 17.523438 32.894531 16.453125 32.894531 15.378906 32.894531 C 15.34375 32.894531 15.3125 32.894531 15.277344 32.894531 C 14.535156 32.894531 13.796875 32.894531 13.058594 32.894531 C 12.792969 32.894531 12.527344 32.894531 12.265625 32.894531 C 12.199219 32.894531 12.132812 32.894531 12.066406 32.894531 C 11.082031 32.894531 10.097656 32.894531 9.113281 32.894531 C 9.078125 32.894531 9.046875 32.894531 9.015625 32.894531 C 8.964844 32.894531 8.964844 32.894531 8.917969 32.894531 C 7.832031 32.898438 6.742188 32.898438 5.65625 32.894531 C 5.539062 32.894531 5.425781 32.894531 5.308594 32.894531 C 5.265625 32.894531 5.265625 32.894531 5.222656 32.894531 C 4.765625 32.894531 4.3125 32.894531 3.859375 32.894531 C 3.414062 32.894531 2.96875 32.894531 2.523438 32.894531 C 2.285156 32.894531 2.046875 32.894531 1.804688 32.894531 C 1.589844 32.894531 1.371094 32.894531 1.15625 32.894531 C 1.078125 32.894531 1 32.894531 0.921875 32.894531 C 0.816406 32.894531 0.710938 32.894531 0.605469 32.894531 C 0.574219 32.894531 0.542969 32.894531 0.511719 32.894531 C 0.367188 32.894531 0.296875 32.886719 0.175781 32.808594 C -0.15625 32.460938 -0.015625 31.566406 -0.00390625 31.117188 C 0.0546875 29.402344 0.800781 27.742188 1.984375 26.511719 C 2.019531 26.472656 2.054688 26.4375 2.089844 26.398438 C 2.609375 25.839844 3.222656 25.40625 3.894531 25.050781 C 3.917969 25.039062 3.941406 25.027344 3.964844 25.015625 C 4.875 24.535156 5.980469 24.226562 7.015625 24.246094 C 7.011719 24.210938 7.003906 24.175781 6.996094 24.140625 C 6.71875 22.75 6.953125 21.339844 7.734375 20.148438 C 7.925781 19.867188 8.148438 19.613281 8.386719 19.367188 C 8.410156 19.34375 8.429688 19.320312 8.453125 19.292969 C 9.0625 18.644531 9.953125 18.21875 10.808594 18 C 10.828125 17.996094 10.851562 17.988281 10.875 17.984375 C 12.15625 17.671875 13.570312 17.945312 14.6875 18.621094 C 14.820312 18.707031 14.953125 18.789062 15.085938 18.878906 C 15.097656 18.832031 15.105469 18.789062 15.113281 18.742188 C 15.15625 18.554688 15.226562 18.382812 15.300781 18.207031 C 15.316406 18.175781 15.332031 18.144531 15.34375 18.109375 C 15.460938 17.84375 15.585938 17.585938 15.722656 17.328125 C 15.753906 17.265625 15.785156 17.203125 15.816406 17.140625 C 16.121094 16.535156 16.519531 15.964844 16.949219 15.4375 C 16.960938 15.421875 16.976562 15.402344 16.992188 15.382812 C 17.511719 14.746094 18.085938 14.152344 18.738281 13.648438 C 18.757812 13.632812 18.777344 13.617188 18.796875 13.601562 C 19.488281 13.066406 20.226562 12.617188 21.015625 12.246094 C 21.0625 12.226562 21.0625 12.226562 21.105469 12.203125 C 23.683594 11.003906 26.707031 10.867188 29.402344 11.753906 Z M 29.402344 11.753906 "/>
<path style=" stroke:none;fill-rule:nonzero;fill:rgb(98.039216%,68.235296%,25.098041%);fill-opacity:1;" d="M 36.914062 20.105469 C 36.941406 20.144531 36.941406 20.144531 36.972656 20.183594 C 37.1875 20.445312 37.375 20.558594 37.71875 20.597656 C 37.828125 20.601562 37.9375 20.601562 38.046875 20.601562 C 38.109375 20.601562 38.175781 20.605469 38.238281 20.605469 C 38.273438 20.605469 38.304688 20.605469 38.339844 20.605469 C 40.460938 20.636719 42.484375 21.214844 44.175781 22.527344 C 44.207031 22.550781 44.238281 22.574219 44.273438 22.601562 C 44.453125 22.742188 44.621094 22.890625 44.789062 23.042969 C 44.847656 23.09375 44.902344 23.144531 44.960938 23.195312 C 45.367188 23.550781 45.710938 23.957031 46.035156 24.386719 C 46.050781 24.40625 46.066406 24.425781 46.082031 24.445312 C 46.308594 24.753906 46.515625 25.070312 46.703125 25.402344 C 46.71875 25.429688 46.730469 25.457031 46.746094 25.484375 C 47.011719 25.957031 47.21875 26.441406 47.402344 26.949219 C 47.414062 26.972656 47.421875 26.996094 47.429688 27.023438 C 48.085938 28.804688 48.074219 30.832031 47.585938 32.648438 C 47.53125 32.765625 47.472656 32.808594 47.367188 32.878906 C 47.25 32.894531 47.25 32.894531 47.113281 32.894531 C 47.085938 32.894531 47.0625 32.894531 47.035156 32.894531 C 46.949219 32.894531 46.863281 32.894531 46.777344 32.894531 C 46.714844 32.894531 46.65625 32.894531 46.59375 32.894531 C 46.421875 32.894531 46.25 32.894531 46.082031 32.894531 C 45.898438 32.894531 45.714844 32.894531 45.53125 32.894531 C 45.210938 32.894531 44.894531 32.894531 44.574219 32.890625 C 44.113281 32.890625 43.65625 32.890625 43.195312 32.890625 C 42.449219 32.890625 41.699219 32.890625 40.953125 32.886719 C 40.226562 32.886719 39.503906 32.886719 38.777344 32.886719 C 38.734375 32.886719 38.6875 32.886719 38.640625 32.886719 C 38.417969 32.882812 38.195312 32.882812 37.96875 32.882812 C 36.109375 32.882812 34.246094 32.878906 32.386719 32.878906 C 32.421875 32.855469 32.457031 32.832031 32.492188 32.808594 C 32.679688 32.65625 32.714844 32.503906 32.773438 32.28125 C 32.785156 32.230469 32.800781 32.183594 32.8125 32.132812 C 32.90625 31.8125 32.988281 31.488281 33.050781 31.15625 C 33.0625 31.117188 33.0625 31.117188 33.074219 31.074219 C 33.179688 30.433594 33.042969 29.714844 32.691406 29.171875 C 32.25 28.5625 31.671875 28.257812 30.949219 28.105469 C 30.664062 28.066406 30.378906 28.058594 30.09375 28.050781 C 30.054688 28.050781 30.054688 28.050781 30.011719 28.050781 C 29.273438 28.03125 28.53125 28.023438 27.789062 28.019531 C 27.402344 28.015625 27.015625 28.011719 26.625 28.007812 C 26.496094 28.007812 26.367188 28.007812 26.234375 28.007812 C 25.535156 28 24.832031 27.992188 24.132812 27.984375 C 24.105469 27.984375 24.078125 27.984375 24.050781 27.984375 C 23.195312 27.972656 22.34375 27.960938 21.488281 27.949219 C 21.449219 27.949219 21.449219 27.949219 21.410156 27.945312 C 20.910156 27.941406 20.410156 27.933594 19.910156 27.925781 C 18.367188 27.902344 18.367188 27.902344 16.828125 27.882812 C 16.773438 27.882812 16.773438 27.882812 16.71875 27.882812 C 16.386719 27.878906 16.054688 27.875 15.726562 27.871094 C 15.445312 27.871094 15.167969 27.867188 14.890625 27.863281 C 14.703125 27.859375 14.515625 27.859375 14.332031 27.859375 C 14.195312 27.855469 14.058594 27.855469 13.921875 27.851562 C 13.855469 27.851562 13.789062 27.851562 13.726562 27.851562 C 13.632812 27.851562 13.542969 27.851562 13.453125 27.847656 C 13.425781 27.847656 13.398438 27.847656 13.371094 27.847656 C 13.167969 27.84375 13.082031 27.789062 12.949219 27.648438 C 12.90625 27.527344 12.914062 27.421875 12.949219 27.296875 C 13.035156 27.1875 13.136719 27.117188 13.261719 27.050781 C 13.363281 27.046875 13.460938 27.042969 13.558594 27.042969 C 13.589844 27.042969 13.621094 27.042969 13.65625 27.039062 C 13.769531 27.039062 13.878906 27.035156 13.992188 27.035156 C 14.03125 27.035156 14.070312 27.035156 14.113281 27.03125 C 14.71875 27.023438 15.324219 27.015625 15.933594 27.011719 C 15.964844 27.007812 16 27.007812 16.035156 27.007812 C 16.328125 27.007812 16.625 27.003906 16.917969 27 C 18.214844 26.988281 19.511719 26.96875 20.8125 26.949219 C 22.167969 26.921875 23.519531 26.90625 24.875 26.894531 C 26.222656 26.886719 27.570312 26.871094 28.917969 26.851562 C 29.085938 26.847656 29.257812 26.84375 29.429688 26.84375 C 29.625 26.839844 29.824219 26.835938 30.023438 26.832031 C 30.097656 26.832031 30.167969 26.832031 30.242188 26.828125 C 30.824219 26.824219 31.421875 26.792969 31.976562 26.597656 C 32.003906 26.585938 32.035156 26.574219 32.066406 26.566406 C 32.84375 26.285156 33.554688 25.878906 34.175781 25.332031 C 34.210938 25.304688 34.246094 25.273438 34.28125 25.242188 C 34.9375 24.65625 35.449219 23.957031 35.792969 23.148438 C 35.804688 23.117188 35.820312 23.085938 35.835938 23.050781 C 36.007812 22.636719 36.164062 22.214844 36.324219 21.792969 C 36.382812 21.632812 36.441406 21.472656 36.503906 21.308594 C 36.523438 21.253906 36.523438 21.253906 36.546875 21.195312 C 36.640625 20.945312 36.738281 20.699219 36.839844 20.457031 C 36.882812 20.339844 36.898438 20.230469 36.914062 20.105469 Z M 36.914062 20.105469 "/>
<path style=" stroke:none;fill-rule:nonzero;fill:rgb(99.607843%,99.607843%,99.215686%);fill-opacity:1;" d="M 36.914062 20.105469 C 36.941406 20.144531 36.941406 20.144531 36.972656 20.183594 C 37.253906 20.527344 37.5 20.578125 37.929688 20.632812 C 37.902344 20.65625 37.875 20.675781 37.847656 20.699219 C 37.730469 20.820312 37.695312 20.949219 37.652344 21.105469 C 37.640625 21.152344 37.640625 21.152344 37.628906 21.195312 C 37.601562 21.289062 37.574219 21.386719 37.546875 21.480469 C 37.53125 21.546875 37.511719 21.609375 37.492188 21.675781 C 37.4375 21.867188 37.386719 22.054688 37.332031 22.246094 C 37.328125 22.269531 37.320312 22.296875 37.3125 22.324219 C 37.253906 22.539062 37.195312 22.757812 37.136719 22.972656 C 37.109375 23.082031 37.078125 23.1875 37.042969 23.296875 C 36.8125 24.003906 36.90625 24.832031 37.191406 25.507812 C 37.496094 26.101562 38.039062 26.496094 38.667969 26.703125 C 39.046875 26.816406 39.425781 26.835938 39.820312 26.859375 C 39.886719 26.863281 39.957031 26.867188 40.023438 26.871094 C 40.421875 26.898438 40.816406 26.917969 41.210938 26.941406 C 41.253906 26.941406 41.296875 26.945312 41.339844 26.945312 C 41.550781 26.957031 41.757812 26.96875 41.96875 26.980469 C 42.1875 26.992188 42.410156 27.003906 42.632812 27.015625 C 42.679688 27.019531 42.679688 27.019531 42.734375 27.023438 C 42.824219 27.03125 42.917969 27.035156 43.011719 27.042969 C 43.039062 27.046875 43.0625 27.046875 43.09375 27.050781 C 43.226562 27.0625 43.296875 27.085938 43.402344 27.167969 C 43.480469 27.273438 43.5 27.34375 43.492188 27.472656 C 43.457031 27.605469 43.367188 27.703125 43.261719 27.789062 C 43.128906 27.835938 43 27.839844 42.859375 27.847656 C 42.828125 27.847656 42.796875 27.851562 42.765625 27.851562 C 42.664062 27.859375 42.5625 27.867188 42.460938 27.871094 C 42.390625 27.878906 42.320312 27.882812 42.25 27.886719 C 42.101562 27.894531 41.953125 27.90625 41.804688 27.914062 C 41.582031 27.929688 41.363281 27.945312 41.140625 27.957031 C 41.035156 27.964844 40.929688 27.972656 40.820312 27.980469 C 40.753906 27.984375 40.6875 27.988281 40.621094 27.992188 C 40.238281 28.019531 39.859375 28.042969 39.480469 28.058594 C 38.238281 28.113281 37.125 28.542969 36.140625 29.296875 C 36.109375 29.320312 36.078125 29.34375 36.046875 29.371094 C 35.351562 29.910156 34.789062 30.585938 34.386719 31.367188 C 34.367188 31.40625 34.367188 31.40625 34.34375 31.449219 C 34.230469 31.671875 34.132812 31.898438 34.042969 32.128906 C 34.027344 32.164062 34.011719 32.199219 34 32.234375 C 33.925781 32.421875 33.867188 32.570312 33.894531 32.773438 C 33.917969 32.808594 33.941406 32.839844 33.964844 32.878906 C 33.445312 32.878906 32.921875 32.878906 32.386719 32.878906 C 32.421875 32.855469 32.457031 32.832031 32.492188 32.808594 C 32.679688 32.65625 32.714844 32.503906 32.773438 32.28125 C 32.785156 32.230469 32.800781 32.183594 32.8125 32.132812 C 32.90625 31.8125 32.988281 31.488281 33.050781 31.15625 C 33.0625 31.117188 33.0625 31.117188 33.074219 31.074219 C 33.179688 30.433594 33.042969 29.714844 32.691406 29.171875 C 32.25 28.5625 31.671875 28.257812 30.949219 28.105469 C 30.664062 28.066406 30.378906 28.058594 30.09375 28.050781 C 30.054688 28.050781 30.054688 28.050781 30.011719 28.050781 C 29.273438 28.03125 28.53125 28.023438 27.789062 28.019531 C 27.402344 28.015625 27.015625 28.011719 26.625 28.007812 C 26.496094 28.007812 26.367188 28.007812 26.234375 28.007812 C 25.535156 28 24.832031 27.992188 24.132812 27.984375 C 24.105469 27.984375 24.078125 27.984375 24.050781 27.984375 C 23.195312 27.972656 22.34375 27.960938 21.488281 27.949219 C 21.449219 27.949219 21.449219 27.949219 21.410156 27.945312 C 20.910156 27.941406 20.410156 27.933594 19.910156 27.925781 C 18.367188 27.902344 18.367188 27.902344 16.828125 27.882812 C 16.773438 27.882812 16.773438 27.882812 16.71875 27.882812 C 16.386719 27.878906 16.054688 27.875 15.726562 27.871094 C 15.445312 27.871094 15.167969 27.867188 14.890625 27.863281 C 14.703125 27.859375 14.515625 27.859375 14.332031 27.859375 C 14.195312 27.855469 14.058594 27.855469 13.921875 27.851562 C 13.855469 27.851562 13.789062 27.851562 13.726562 27.851562 C 13.632812 27.851562 13.542969 27.851562 13.453125 27.847656 C 13.425781 27.847656 13.398438 27.847656 13.371094 27.847656 C 13.167969 27.84375 13.082031 27.789062 12.949219 27.648438 C 12.90625 27.527344 12.914062 27.421875 12.949219 27.296875 C 13.035156 27.1875 13.136719 27.117188 13.261719 27.050781 C 13.363281 27.046875 13.460938 27.042969 13.558594 27.042969 C 13.589844 27.042969 13.621094 27.042969 13.65625 27.039062 C 13.769531 27.039062 13.878906 27.035156 13.992188 27.035156 C 14.03125 27.035156 14.070312 27.035156 14.113281 27.03125 C 14.71875 27.023438 15.324219 27.015625 15.933594 27.011719 C 15.964844 27.007812 16 27.007812 16.035156 27.007812 C 16.328125 27.007812 16.625 27.003906 16.917969 27 C 18.214844 26.988281 19.511719 26.96875 20.8125 26.949219 C 22.167969 26.921875 23.519531 26.90625 24.875 26.894531 C 26.222656 26.886719 27.570312 26.871094 28.917969 26.851562 C 29.085938 26.847656 29.257812 26.84375 29.429688 26.84375 C 29.625 26.839844 29.824219 26.835938 30.023438 26.832031 C 30.097656 26.832031 30.167969 26.832031 30.242188 26.828125 C 30.824219 26.824219 31.421875 26.792969 31.976562 26.597656 C 32.003906 26.585938 32.035156 26.574219 32.066406 26.566406 C 32.84375 26.285156 33.554688 25.878906 34.175781 25.332031 C 34.210938 25.304688 34.246094 25.273438 34.28125 25.242188 C 34.9375 24.65625 35.449219 23.957031 35.792969 23.148438 C 35.804688 23.117188 35.820312 23.085938 35.835938 23.050781 C 36.007812 22.636719 36.164062 22.214844 36.324219 21.792969 C 36.382812 21.632812 36.441406 21.472656 36.503906 21.308594 C 36.523438 21.253906 36.523438 21.253906 36.546875 21.195312 C 36.640625 20.945312 36.738281 20.699219 36.839844 20.457031 C 36.882812 20.339844 36.898438 20.230469 36.914062 20.105469 Z M 36.914062 20.105469 "/>
</g>
</svg>
